<?xml version="1.0" encoding="utf-8"?>
<!-- Generator: Adobe Illustrator 25.3.0, SVG Export Plug-In . SVG Version: 6.00 Build 0)  -->
<svg version="1.1" id="Cambridge_logo" xmlns="http://www.w3.org/2000/svg" xmlns:xlink="http://www.w3.org/1999/xlink" x="0px"
	 y="0px" viewBox="0 0 1413.024 238.848" style="enable-background:new 0 0 1413.024 238.848;" xml:space="preserve">
<style type="text/css">
	.st0{fill:#FFFFFF;}
</style>
<g id="Text">
	<g>
		<g>
			<g>
				<g>
					<path class="st0" d="M1401.352,14.978l0.357,27.744c0,0-3.367,0.849-4.431,1.14c-0.995-12.126-3.742-22.03-23.139-22.03
						h-26.065v51.283h22.374c10.975,0,13.957-6.139,15.199-16.73c0.837,0,3.5,0,4.453,0c0,1.433,0,42.884,0,42.884l-4.441,0.066
						c-0.689-10.256-3.102-18.219-15.12-18.219h-22.466v45.029c0,13.09,11.274,13.09,23.216,13.09
						c21.423,0,31.353-1.344,37.342-23.02c0.872,0.222,4.392,0.977,4.392,0.977l-5.999,28.904c0,0-95.889,0-97.323,0
						c0-0.949,0-3.841,0-4.8c0.75,0,1.854,0,1.854,0c7.468,0,14.371-1.393,14.371-11.58V31.359c0-10.177-6.902-11.588-14.371-11.588
						c0,0-1.104,0-1.854,0c0-0.949,0-3.826,0-4.793C1311.13,14.978,1401.352,14.978,1401.352,14.978"/>
					<path class="st0" d="M870.964,14.978c29.029,0,43.44,10.692,43.44,32.677c0,18.65-14.564,28.095-26.035,32.743l-0.847,0.347
						l32.164,48.965c5.145,7.94,9.346,11.006,18.196,11.488c0,0.862,0,3.915,0,4.9c-1.377,0-33.564,0-33.564,0l-39.015-61.573
						h-14.48v40.828c0,14.801,6.56,15.944,15.84,15.944c0,0,1.711,0,2.599,0c0,0.964,0,3.851,0,4.8c-1.408,0-55.592,0-56.994,0
						c0-0.949,0-3.836,0-4.8c0.895,0,2.589,0,2.589,0c6.374,0,13.817-2.877,13.817-11.001V34.963
						c0-15.192-8.983-15.192-13.817-15.192c0,0-1.694,0-2.589,0c0-0.954,0-3.826,0-4.793
						C813.689,14.978,870.964,14.978,870.964,14.978 M850.834,21.148l-0.01,58.048h11.203c20.41,0,29.407-9.096,29.407-30.401
						c0-17.288-11.141-28.475-27.922-28.475C859.581,20.32,854.556,20.549,850.834,21.148z"/>
					<path class="st0" d="M1000.644,14.953c0,0.964,0,3.836,0,4.795c-0.76,0-1.854,0-1.854,0c-7.468,0-14.373,1.411-14.373,11.583
						v98.368c0,10.177,6.904,11.577,14.373,11.577c0,0,1.094,0,1.854,0c0,0.959,0,3.844,0,4.795c-1.395,0-53.378,0-54.77,0
						c0-0.951,0-3.836,0-4.795c0.745,0,1.847,0,1.847,0c7.473,0,14.373-1.4,14.373-11.577V31.331c0-10.172-6.9-11.583-14.373-11.583
						c0,0-1.102,0-1.847,0c0-0.959,0-3.831,0-4.795C947.267,14.953,999.249,14.953,1000.644,14.953"/>
					<path class="st0" d="M250.533,80.428c0-19.494,7.907-38.64,21.525-50.837c12.631-11.325,29.21-17.681,47.934-17.681
						c16.768,0,30.743,3.033,44.412,9.417l1.388,30.35l-4.308,0.556c-4.943-17.6-13.169-33.709-40.946-33.709
						c-28.539,0-46.271,22.594-46.271,58.976c0,32.386,14.337,63.009,49.059,63.009c19.515,0,33.431-7.308,43.935-20.811l3.431,6.42
						c-11.83,15.296-30.103,23.448-50.901,23.448C277.506,149.566,250.533,124.613,250.533,80.428"/>
					<path class="st0" d="M533.268,40.329c0,0-4.349,80.978-4.349,80.983c-0.791,17.934,4.772,19.505,16.819,19.956h1.12v4.765
						H502.66v-4.765h1.686c14.891-0.592,15.804-8.876,16.495-20.979l5.134-82.894c0.668-11.31-5.527-17.727-15.947-17.727
						c0,0-0.824,0-1.517,0c0-1.035,0-3.732,0-4.772c1.612,0,36.056,0,37.112,0c0.444,1.051,44.532,99.368,44.532,99.368
						s41.685-98.335,42.129-99.384c1.046,0,36.388,0,36.388,0l-0.008,4.829h-0.696c-14.746,0-17.36,4.583-16.248,23.117
						l5.071,86.967c0.775,10.175,6.111,11.095,16.148,11.47c0,1.023,0,3.686,0,4.734c-1.632,0-52.776,0-54.408,0
						c0-1.051,0-3.742,0-4.734c0.15-0.015,0.357-0.023,0.357-0.023c8.861-0.535,15.263-0.905,15.263-9.807l-0.189-9.402
						c0-0.025-3.992-83.845-3.992-83.845s-44.894,107.76-45.338,108.808c-0.719,0-3.229,0-3.956,0
						C580.228,145.931,533.268,40.329,533.268,40.329"/>
					<path class="st0" d="M1021.287,146.072v-4.808h1.857c7.463,0,14.368-1.395,14.368-11.585V31.331
						c0-10.177-6.905-11.58-14.368-11.58h-1.857v-4.8l58.616-0.051c21.788,0,40.04,5.479,52.788,17.344
						c12.559,11.697,19.209,28.256,19.209,47.922c0,18.372-7.315,36.163-20.064,48.817c-12.832,12.712-30.791,17.054-48.975,17.054
						L1021.287,146.072z M1059.786,21.199l-0.01,102.96c0,13.904,5.879,16.148,19.943,16.148c33.128,0,48.21-28.527,48.21-56.484
						c0-43.453-17.936-63.238-54.813-63.238C1069.867,20.585,1062.926,20.873,1059.786,21.199z"/>
					<path class="st0" d="M1263.489,139.328v-32.146c0-7.032-5.114-10.754-14.802-10.754h-1.533v-4.678h50.401v4.678h-1.525
						c-7.047,0-10.774,3.721-10.774,10.754l-0.02,35.783c-12.029,3.872-28.167,6.927-46.098,6.927
						c-43.275,0-71.253-28.057-71.253-71.467c0-46.174,36.893-67.212,71.607-67.212c15.549,0,31.531,3.094,41.665,6.484
						l2.086,31.299l-4.397,0.275c-5.435-22.543-15.488-31.381-38.063-31.381c-30.463,0-48.929,22.458-48.929,58.604
						c0,33.207,15.589,66.118,50.403,66.118C1250.282,142.789,1258.582,141.562,1263.489,139.328"/>
					<path class="st0" d="M730.092,78.171v46.139c0,12.812,4.081,16.482,17.383,16.482c15.969,0,28.021-13.146,28.021-31.054
						c0-20.137-12.261-31.567-32.804-31.567H730.092z M730.092,19.786v52.656h9.863c18.064,0,28.014-8.759,28.014-25.522
						c0-18.52-8.749-27.134-26.007-27.134H730.092z M756.965,74.687c16.503,1.206,25.284,4.838,32.671,12.406
						c5.713,5.841,8.731,13.251,8.731,21.874c0,20.579-18.864,37.066-43.389,37.066l-64.235-0.008v-4.749h2.594
						c6.359,0,13.807-3.033,13.807-11.172V34.973c0-15.186-8.991-15.186-13.807-15.186h-2.594v-4.795l58.208-0.028
						c27.33,0,42.379,9.907,42.379,28.672C791.33,64.405,773.055,72.088,756.965,74.687"/>
					<path class="st0" d="M428.839,14.938c0,0-41.616,113.167-41.616,113.18c-3.086,8.042-8.535,13.003-16.607,13.003h-0.446
						l-0.018,4.918h39.905l-0.013-4.918h-1.735c-9.606,0-16.143-3.068-11.963-15.47l9.524-26.44h41.316l10.333,28.82
						c2.967,9.096-0.9,13.225-10.771,13.225h-1.15l0.005,4.836h50.763l0.013-4.836h-0.398c-6.767,0-11.399-3.545-14.564-12.539
						L438.712,14.956L428.839,14.938z M426.564,41.691l18.316,51.077h-36.684L426.564,41.691z"/>
				</g>
			</g>
		</g>
	</g>
	<g>
		<g>
			<g>
				<g>
					<path class="st0" d="M256.648,179.709c3.683,0.064,6.008,0.13,8.205,0.13c2.455,0,5.039-0.065,8.463-0.13v1.874h-0.452
						c-2.778,0-4.199,0.323-4.199,3.618v23.84c0,6.719,3.876,11.24,11.048,11.24c7.235,0,11.306-4.328,11.306-11.176v-21.514
						c0-5.944-1.615-5.944-4.975-6.009v-1.874c1.421,0.064,3.941,0.13,6.654,0.13c1.938,0,3.941-0.065,5.879-0.13v1.874
						c-3.295,0-4.264,0.711-4.264,4.716v22.289c0,8.916-5.814,14.407-16.475,14.407c-10.53,0-16.732-4.78-16.732-13.18v-24.614
						c0-2.649-0.905-3.618-4.458-3.618V179.709z"/>
					<path class="st0" d="M305.208,179.709c2.455,0.064,4.846,0.13,7.171,0.13c1.745,0,3.425-0.065,5.814-0.13l27.135,30.559V187.72
						c0-5.104-1.938-6.138-6.525-6.138v-1.874c3.425,0.064,5.944,0.13,7.494,0.13c2.262,0,4.781-0.065,7.688-0.13v1.874h-1.421
						c-3.425,0-4.588,2.843-4.588,6.073v35.403h-1.68l-31.785-35.985v26.812c0,4.265,1.55,6.073,6.267,6.073h0.258v1.873
						c-2.132-0.064-4.328-0.129-7.817-0.129c-1.68,0-5.427,0.064-7.688,0.129v-1.873c4.975-0.064,6.331-1.551,6.331-5.75v-28.686
						c0-2.261-2.196-3.812-6.654-3.94V179.709z"/>
					<path class="st0" d="M377.503,221.832c-2.52-0.064-5.104-0.129-8.205-0.129c-4.91,0-6.784,0.064-8.722,0.129v-1.873
						c3.94,0,4.845-1.034,4.845-5.233V185.33c0-2.778-1.033-3.747-4.651-3.747v-1.874c2.455,0.064,5.75,0.13,8.786,0.13
						c2.067,0,4.458-0.065,8.076-0.13v1.874c-3.812,0-4.716,0.646-4.716,4.264v30.559c0,2.907,0.904,3.489,4.587,3.554V221.832z"/>
					<path class="st0" d="M384.459,179.709c3.553,0.064,5.879,0.13,8.786,0.13c3.101,0,6.008-0.065,9.368-0.13v1.874
						c-2.714,0.064-4.458,0.064-4.458,1.744c0,0.711,0.193,1.68,0.969,3.554l10.144,25.196l9.626-25.648
						c0.517-1.422,0.84-2.455,0.84-3.23c0-1.551-1.809-1.551-4.587-1.615v-1.874c2.648,0.064,3.94,0.13,5.686,0.13
						c1.68,0,3.295-0.065,5.685-0.13v1.874h-0.388c-1.421,0-1.873,0.452-2.39,1.099c-0.388,0.517-0.84,1.356-1.551,3.165
						l-14.73,37.02h-2.003l-15.764-38.958c-0.775-1.938-2.002-2.261-5.232-2.325V179.709z"/>
					<path class="st0" d="M432.65,179.709c4.587,0.064,9.109,0.13,13.696,0.13c5.686,0,11.112-0.065,17.379-0.13
						c0,0.582-0.064,1.615-0.064,2.455c0,1.163,0.064,3.554,0.258,6.009l-1.68,0.646c-0.452-3.617-1.098-4.651-2.002-5.491
						c-0.97-0.84-2.003-1.292-6.461-1.292c-1.486,0-5.491,0.129-8.076,0.193v16.022h7.947c3.683,0,4.716-1.292,4.716-5.104h1.615
						c0,0.775-0.064,2.907-0.064,5.362c0,4.199,0.129,5.943,0.193,7.688l-1.615,0.323v-1.033c0-3.554-1.809-4.394-4.457-4.394H445.7
						v13.438c0,2.261,0.582,3.359,1.745,3.94c1.098,0.582,2.842,0.84,5.75,0.84c3.617,0,6.072-0.193,7.43-0.517
						c1.55-0.388,2.39-0.904,3.165-1.68c0.711-0.775,1.422-2.003,2.52-4.975h1.68l-2.261,9.626c-2.972,0-16.022-0.064-18.154-0.064
						c-4.135,0-7.753,0.064-14.924,0.129v-1.873c4.716-0.064,5.427-1.099,5.427-4.006v-30.364c0-3.554-0.711-4.006-5.427-4.006
						V179.709z"/>
					<path class="st0" d="M473.993,179.709c2.713,0.064,5.233,0.13,6.783,0.13c3.554,0,7.106-0.13,10.66-0.13
						c10.401,0,15.57,3.748,15.57,10.531c0,4.91-3.037,8.398-8.722,10.531l7.882,11.758c1.744,2.648,3.295,4.522,4.522,5.621
						c1.292,1.098,2.584,1.809,4.91,1.809v1.873c-1.615-0.064-2.908-0.129-4.394-0.129c-2.132,0-5.039,0.129-6.396,0.129
						c-1.098,0-1.873-0.387-3.295-2.584l-3.617-5.557c-0.905-1.356-2.585-3.876-3.747-5.879c-0.646-1.162-3.166-5.75-3.166-5.75
						h-4.07v14.537c0,2.325,1.099,3.359,5.169,3.359h0.452v1.873c-1.422-0.064-7.56-0.129-9.045-0.129
						c-2.972,0-7.301,0.064-9.562,0.129v-1.873h0.323c4.328,0,5.104-1.099,5.104-4.394v-29.719c0-3.683-1.034-4.264-5.039-4.264
						h-0.323V179.709z M486.914,199.866h3.554c2.39,0,3.876-0.452,5.168-1.228c1.68-1.033,3.618-3.166,3.618-7.623
						c0-6.202-3.359-9.433-9.045-9.433c-1.033,0-2.261,0.129-3.295,0.452V199.866z"/>
					<path class="st0" d="M540.339,179.063l4.07,0.452c0,2.455,0.323,5.621,0.646,8.334l-1.68,0.193
						c-1.034-4.909-3.295-7.171-7.365-7.171c-5.491,0-7.882,4.135-7.882,7.365c0,4.006,2.907,5.814,9.109,9.045
						c7.106,3.683,9.69,7.817,9.69,12.856c0,7.753-6.654,12.469-14.277,12.469c-3.747,0-6.978-0.969-10.725-2.713
						c-0.388-5.233-0.711-7.883-0.904-8.723l1.615-0.258c1.744,5.814,4.135,9.497,9.819,9.497c5.557,0,8.205-4.006,8.205-7.56
						c0-4.78-4.006-6.783-8.657-9.109c-5.686-2.842-9.755-6.201-9.755-12.598c0-7.688,5.556-12.469,13.632-12.469
						C536.592,178.676,538.013,178.804,540.339,179.063z"/>
					<path class="st0" d="M570.255,221.832c-2.52-0.064-5.104-0.129-8.205-0.129c-4.91,0-6.784,0.064-8.722,0.129v-1.873
						c3.94,0,4.845-1.034,4.845-5.233V185.33c0-2.778-1.033-3.747-4.651-3.747v-1.874c2.455,0.064,5.75,0.13,8.786,0.13
						c2.067,0,4.458-0.065,8.076-0.13v1.874c-3.812,0-4.716,0.646-4.716,4.264v30.559c0,2.907,0.904,3.489,4.587,3.554V221.832z"/>
					<path class="st0" d="M576.608,187.849c0.711-3.683,1.033-6.072,1.163-10.337h1.356c0.452,1.421,1.421,2.132,3.295,2.132h31.915
						c2.067,0,2.649-0.517,3.618-2.132l1.099,0.517c-0.775,5.039-0.775,7.43-0.775,9.627l-1.486,0.581
						c-0.193-3.424-0.581-4.135-1.292-4.846c-0.775-0.774-2.326-1.163-4.651-1.163h-8.98v33.078c0,3.812,1.292,4.588,5.943,4.652
						v1.873c-3.553-0.064-6.331-0.129-9.497-0.129c-3.229,0-6.072,0.064-9.626,0.129v-1.873h0.84c3.812,0,4.846-0.388,4.846-5.427
						v-32.304h-8.786c-4.975,0-6.396,1.357-7.172,5.621H576.608z"/>
					<path class="st0" d="M625.466,179.709c4.264,0.064,6.008,0.13,9.045,0.13c3.165,0,4.78-0.065,9.109-0.13v1.874
						c-1.81,0.064-3.36,0.194-3.36,1.292c0,0.323,0.13,0.904,0.97,2.067l9.303,12.534l7.947-11.953
						c0.517-0.775,1.292-2.002,1.292-2.648c0-1.163-1.615-1.228-4.265-1.292v-1.874c2.907,0.064,5.169,0.13,6.525,0.13
						c1.68,0,3.23-0.065,5.621-0.13v1.874c-1.745,0-3.102,0.517-4.458,2.391l-11.436,16.022v16.604c0,2.584,1.099,3.359,5.686,3.359
						v1.873c-2.972-0.064-4.394-0.129-9.109-0.129c-3.295,0-6.525,0.064-9.82,0.129v-1.873c4.458-0.064,5.621-0.323,5.621-3.941
						V201.74l-13.761-18.672c-0.905-1.227-2.585-1.485-4.91-1.485V179.709z"/>
					<path class="st0" d="M704.471,215.888c0,4.07,2.713,4.07,6.202,4.07v1.873c-2.003-0.064-6.525-0.129-9.885-0.129
						c-3.877,0-5.944,0.064-8.528,0.129v-1.873c3.359,0,4.651-0.646,4.651-4.264v-30.301c0-3.617-1.55-3.812-4.587-3.812v-1.874
						c2.455,0.064,5.686,0.13,7.753,0.13c3.424,0,6.461-0.13,9.238-0.13c9.691,0,14.02,4.781,14.02,11.436
						c0,3.877-1.615,6.525-3.036,8.012c-1.744,1.809-4.329,4.005-11.823,4.005h-0.969v-1.68h0.323c5.232,0,7.882-3.23,7.882-9.238
						c0-1.356-0.259-10.66-7.817-10.66c-1.486,0-2.778,0.129-3.424,0.194V215.888z"/>
					<path class="st0" d="M728.495,179.709c2.713,0.064,5.233,0.13,6.783,0.13c3.554,0,7.106-0.13,10.66-0.13
						c10.401,0,15.57,3.748,15.57,10.531c0,4.91-3.037,8.398-8.722,10.531l7.882,11.758c1.744,2.648,3.295,4.522,4.522,5.621
						c1.292,1.098,2.584,1.809,4.91,1.809v1.873c-1.615-0.064-2.908-0.129-4.394-0.129c-2.132,0-5.039,0.129-6.396,0.129
						c-1.098,0-1.873-0.387-3.295-2.584l-3.617-5.557c-0.905-1.356-2.585-3.876-3.747-5.879c-0.646-1.162-3.166-5.75-3.166-5.75
						h-4.07v14.537c0,2.325,1.099,3.359,5.169,3.359h0.452v1.873c-1.422-0.064-7.56-0.129-9.045-0.129
						c-2.972,0-7.301,0.064-9.562,0.129v-1.873h0.323c4.328,0,5.104-1.099,5.104-4.394v-29.719c0-3.683-1.034-4.264-5.039-4.264
						h-0.323V179.709z M741.416,199.866h3.554c2.39,0,3.876-0.452,5.168-1.228c1.68-1.033,3.618-3.166,3.618-7.623
						c0-6.202-3.359-9.433-9.045-9.433c-1.033,0-2.261,0.129-3.295,0.452V199.866z"/>
					<path class="st0" d="M775.652,179.709c4.587,0.064,9.109,0.13,13.696,0.13c5.686,0,11.112-0.065,17.379-0.13
						c0,0.582-0.064,1.615-0.064,2.455c0,1.163,0.064,3.554,0.258,6.009l-1.68,0.646c-0.452-3.617-1.098-4.651-2.002-5.491
						c-0.97-0.84-2.003-1.292-6.461-1.292c-1.486,0-5.491,0.129-8.076,0.193v16.022h7.947c3.683,0,4.716-1.292,4.716-5.104h1.615
						c0,0.775-0.064,2.907-0.064,5.362c0,4.199,0.129,5.943,0.193,7.688l-1.615,0.323v-1.033c0-3.554-1.809-4.394-4.457-4.394
						h-8.335v13.438c0,2.261,0.582,3.359,1.745,3.94c1.098,0.582,2.842,0.84,5.75,0.84c3.617,0,6.072-0.193,7.43-0.517
						c1.55-0.388,2.39-0.904,3.165-1.68c0.711-0.775,1.422-2.003,2.52-4.975h1.68l-2.261,9.626c-2.972,0-16.022-0.064-18.154-0.064
						c-4.135,0-7.753,0.064-14.924,0.129v-1.873c4.716-0.064,5.427-1.099,5.427-4.006v-30.364c0-3.554-0.711-4.006-5.427-4.006
						V179.709z"/>
					<path class="st0" d="M836.641,179.063l4.07,0.452c0,2.455,0.323,5.621,0.646,8.334l-1.68,0.193
						c-1.034-4.909-3.295-7.171-7.365-7.171c-5.491,0-7.882,4.135-7.882,7.365c0,4.006,2.907,5.814,9.109,9.045
						c7.106,3.683,9.69,7.817,9.69,12.856c0,7.753-6.654,12.469-14.277,12.469c-3.747,0-6.978-0.969-10.725-2.713
						c-0.388-5.233-0.711-7.883-0.904-8.723l1.615-0.258c1.744,5.814,4.135,9.497,9.819,9.497c5.557,0,8.205-4.006,8.205-7.56
						c0-4.78-4.006-6.783-8.657-9.109c-5.686-2.842-9.755-6.201-9.755-12.598c0-7.688,5.556-12.469,13.632-12.469
						C832.894,178.676,834.316,178.804,836.641,179.063z"/>
					<path class="st0" d="M870.169,179.063l4.07,0.452c0,2.455,0.323,5.621,0.646,8.334l-1.68,0.193
						c-1.034-4.909-3.295-7.171-7.365-7.171c-5.491,0-7.882,4.135-7.882,7.365c0,4.006,2.907,5.814,9.109,9.045
						c7.106,3.683,9.69,7.817,9.69,12.856c0,7.753-6.654,12.469-14.277,12.469c-3.747,0-6.978-0.969-10.725-2.713
						c-0.388-5.233-0.711-7.883-0.904-8.723l1.615-0.258c1.744,5.814,4.135,9.497,9.819,9.497c5.557,0,8.205-4.006,8.205-7.56
						c0-4.78-4.006-6.783-8.657-9.109c-5.686-2.842-9.755-6.201-9.755-12.598c0-7.688,5.556-12.469,13.632-12.469
						C866.422,178.676,867.844,178.804,870.169,179.063z"/>
					<path class="st0" d="M929.664,185.782c0,3.618-2.972,6.461-7.106,8.076c3.295,1.873,5.879,3.812,7.882,5.62
						s4.135,4.199,6.525,7.172c2.391-3.748,3.876-6.138,4.846-8.012c1.162-2.196,1.68-3.683,1.68-4.651
						c0-1.292-0.904-2.132-3.425-2.132h-0.388v-1.486h16.41v1.422c-4.716,0.258-6.654,1.356-9.367,4.393
						c-1.293,1.422-4.91,6.784-8.593,11.952c4.522,7.236,8.205,10.337,12.017,10.337c2.132,0,4.328-1.098,6.654-3.488l1.163,1.098
						c-4.458,5.428-8.205,7.172-11.759,7.172c-3.424,0-6.719-2.003-9.109-4.91c-1.356-1.615-2.003-2.778-3.424-4.717l-2.778,2.714
						c-2.584,2.584-6.202,6.267-12.404,6.267c-6.848,0-12.598-5.168-12.598-12.146c0-6.784,4.716-10.337,9.69-13.825
						c-2.777-2.262-4.328-4.781-4.328-7.947c0-4.393,3.553-9.238,10.207-9.238C926.369,179.451,929.664,181.97,929.664,185.782z
						 M922.881,217.116c3.747,0,6.525-1.421,9.562-5.039c-2.584-3.618-5.104-6.461-7.235-8.335
						c-2.068-1.873-4.588-3.746-8.141-6.072c-3.102,1.938-5.491,5.039-5.491,8.916C911.575,212.012,915.903,217.116,922.881,217.116
						z M921.394,193.017c2.003-1.55,3.683-3.165,3.683-6.137c0-2.133-1.098-5.557-4.587-5.557c-2.778,0-4.587,2.197-4.587,4.781
						S917.971,191.532,921.394,193.017z"/>
					<path class="st0" d="M1010.672,187.849l8.398,24.356c1.098,3.101,1.938,5.169,2.52,6.202s1.809,1.551,3.618,1.551h0.388v1.873
						c-4.2-0.064-5.621-0.129-7.817-0.129c-2.003,0-4.199,0.064-9.368,0.129v-1.873c2.648-0.064,4.458-0.129,4.458-1.551
						c0-0.388-0.129-0.904-0.388-1.68l-3.295-9.756H995.23l-2.584,7.365c-0.581,1.68-0.775,2.648-0.775,3.424
						c0,2.003,2.714,2.133,5.104,2.197v1.873c-2.261-0.064-4.587-0.129-6.396-0.129c-3.554,0-5.75,0.064-7.236,0.129v-1.873
						c3.23,0,4.522-0.904,6.009-4.91l7.688-20.997l2.196-6.073c0.84-2.39,1.551-4.716,2.067-7.041
						c2.907-1.099,3.683-1.486,6.267-2.908C1008.604,181.842,1009.766,185.265,1010.672,187.849z M1002.272,186.493l-6.008,17.379
						h11.887l-5.749-17.379H1002.272z"/>
					<path class="st0" d="M1051.497,179.063l4.07,0.452c0,2.455,0.323,5.621,0.646,8.334l-1.68,0.193
						c-1.034-4.909-3.295-7.171-7.365-7.171c-5.491,0-7.882,4.135-7.882,7.365c0,4.006,2.907,5.814,9.109,9.045
						c7.106,3.683,9.69,7.817,9.69,12.856c0,7.753-6.654,12.469-14.277,12.469c-3.747,0-6.978-0.969-10.725-2.713
						c-0.388-5.233-0.711-7.883-0.904-8.723l1.615-0.258c1.744,5.814,4.135,9.497,9.819,9.497c5.557,0,8.205-4.006,8.205-7.56
						c0-4.78-4.006-6.783-8.657-9.109c-5.686-2.842-9.755-6.201-9.755-12.598c0-7.688,5.556-12.469,13.632-12.469
						C1047.75,178.676,1049.172,178.804,1051.497,179.063z"/>
					<path class="st0" d="M1085.023,179.063l4.07,0.452c0,2.455,0.323,5.621,0.646,8.334l-1.68,0.193
						c-1.034-4.909-3.295-7.171-7.365-7.171c-5.491,0-7.882,4.135-7.882,7.365c0,4.006,2.907,5.814,9.109,9.045
						c7.106,3.683,9.69,7.817,9.69,12.856c0,7.753-6.654,12.469-14.277,12.469c-3.747,0-6.978-0.969-10.725-2.713
						c-0.388-5.233-0.711-7.883-0.904-8.723l1.615-0.258c1.744,5.814,4.135,9.497,9.819,9.497c5.557,0,8.205-4.006,8.205-7.56
						c0-4.78-4.006-6.783-8.657-9.109c-5.686-2.842-9.755-6.201-9.755-12.598c0-7.688,5.556-12.469,13.632-12.469
						C1081.276,178.676,1082.698,178.804,1085.023,179.063z"/>
					<path class="st0" d="M1097.818,179.709c4.587,0.064,9.109,0.13,13.696,0.13c5.686,0,11.112-0.065,17.379-0.13
						c0,0.582-0.064,1.615-0.064,2.455c0,1.163,0.064,3.554,0.258,6.009l-1.68,0.646c-0.452-3.617-1.098-4.651-2.002-5.491
						c-0.97-0.84-2.003-1.292-6.461-1.292c-1.486,0-5.491,0.129-8.076,0.193v16.022h7.947c3.683,0,4.716-1.292,4.716-5.104h1.615
						c0,0.775-0.064,2.907-0.064,5.362c0,4.199,0.129,5.943,0.193,7.688l-1.615,0.323v-1.033c0-3.554-1.809-4.394-4.457-4.394
						h-8.335v13.438c0,2.261,0.582,3.359,1.745,3.94c1.098,0.582,2.842,0.84,5.75,0.84c3.617,0,6.072-0.193,7.43-0.517
						c1.55-0.388,2.39-0.904,3.165-1.68c0.711-0.775,1.422-2.003,2.52-4.975h1.68l-2.261,9.626c-2.972,0-16.022-0.064-18.154-0.064
						c-4.135,0-7.753,0.064-14.924,0.129v-1.873c4.716-0.064,5.427-1.099,5.427-4.006v-30.364c0-3.554-0.711-4.006-5.427-4.006
						V179.709z"/>
					<path class="st0" d="M1158.807,179.063l4.07,0.452c0,2.455,0.323,5.621,0.646,8.334l-1.68,0.193
						c-1.034-4.909-3.295-7.171-7.365-7.171c-5.491,0-7.882,4.135-7.882,7.365c0,4.006,2.907,5.814,9.109,9.045
						c7.106,3.683,9.69,7.817,9.69,12.856c0,7.753-6.654,12.469-14.277,12.469c-3.747,0-6.978-0.969-10.725-2.713
						c-0.388-5.233-0.711-7.883-0.904-8.723l1.615-0.258c1.744,5.814,4.135,9.497,9.819,9.497c5.557,0,8.205-4.006,8.205-7.56
						c0-4.78-4.006-6.783-8.657-9.109c-5.686-2.842-9.755-6.201-9.755-12.598c0-7.688,5.556-12.469,13.632-12.469
						C1155.06,178.676,1156.482,178.804,1158.807,179.063z"/>
					<path class="st0" d="M1192.334,179.063l4.07,0.452c0,2.455,0.323,5.621,0.646,8.334l-1.68,0.193
						c-1.034-4.909-3.295-7.171-7.365-7.171c-5.491,0-7.882,4.135-7.882,7.365c0,4.006,2.907,5.814,9.109,9.045
						c7.106,3.683,9.69,7.817,9.69,12.856c0,7.753-6.654,12.469-14.277,12.469c-3.747,0-6.978-0.969-10.725-2.713
						c-0.388-5.233-0.711-7.883-0.904-8.723l1.615-0.258c1.744,5.814,4.135,9.497,9.819,9.497c5.557,0,8.205-4.006,8.205-7.56
						c0-4.78-4.006-6.783-8.657-9.109c-5.686-2.842-9.755-6.201-9.755-12.598c0-7.688,5.556-12.469,13.632-12.469
						C1188.587,178.676,1190.009,178.804,1192.334,179.063z"/>
					<path class="st0" d="M1207.087,179.709c2.585,0.064,4.846,0.13,6.268,0.13c1.873,0,3.747-0.065,6.396-0.13l14.148,31.852
						c4.199-9.109,8.98-20.223,14.148-31.852c2.197,0.064,4.006,0.13,5.492,0.13s3.488-0.065,6.912-0.13v1.874H1260
						c-3.619,0-5.039,0.517-5.039,3.424c0,0.905,0.064,1.938,0.129,2.714l2.195,28.943c0.26,3.036,1.939,3.295,5.428,3.295v1.873
						c-2.455-0.064-5.428-0.129-8.398-0.129c-4.006,0-7.236,0.064-10.014,0.129v-1.873c3.1-0.064,5.297-0.388,5.297-2.778
						c0-0.581-0.064-1.421-0.129-2.132l-1.938-27.199h-0.131l-15.633,35.017h-1.1l-15.117-34.241h-0.129l-2.133,24.809
						c-0.064,0.969-0.129,1.873-0.129,2.391c0,2.777,1.228,4.135,4.135,4.135h1.615v1.873c-2.261-0.064-4.458-0.129-7.494-0.129
						c-3.747,0-5.943,0.064-7.688,0.129v-1.873h0.646c2.261,0,3.488-0.129,4.458-1.163c0.84-0.84,1.356-2.52,1.615-5.169
						l2.39-23.903c0.13-1.356,0.194-2.585,0.194-3.425c0-4.199-2.197-4.651-5.944-4.716V179.709z"/>
					<path class="st0" d="M1269.56,179.709c4.588,0.064,9.109,0.13,13.697,0.13c5.686,0,11.111-0.065,17.379-0.13
						c0,0.582-0.064,1.615-0.064,2.455c0,1.163,0.064,3.554,0.258,6.009l-1.68,0.646c-0.451-3.617-1.098-4.651-2.002-5.491
						c-0.969-0.84-2.004-1.292-6.461-1.292c-1.486,0-5.492,0.129-8.076,0.193v16.022h7.947c3.682,0,4.717-1.292,4.717-5.104h1.613
						c0,0.775-0.064,2.907-0.064,5.362c0,4.199,0.131,5.943,0.195,7.688l-1.615,0.323v-1.033c0-3.554-1.811-4.394-4.459-4.394
						h-8.334v13.438c0,2.261,0.582,3.359,1.744,3.94c1.1,0.582,2.844,0.84,5.75,0.84c3.619,0,6.074-0.193,7.43-0.517
						c1.551-0.388,2.391-0.904,3.166-1.68c0.711-0.775,1.422-2.003,2.52-4.975h1.68l-2.262,9.626
						c-2.971,0-16.021-0.064-18.154-0.064c-4.135,0-7.752,0.064-14.924,0.129v-1.873c4.717-0.064,5.428-1.099,5.428-4.006v-30.364
						c0-3.554-0.711-4.006-5.428-4.006V179.709z"/>
					<path class="st0" d="M1309.885,179.709c2.455,0.064,4.846,0.13,7.172,0.13c1.744,0,3.424-0.065,5.814-0.13l27.135,30.559
						V187.72c0-5.104-1.939-6.138-6.525-6.138v-1.874c3.424,0.064,5.943,0.13,7.494,0.13c2.26,0,4.781-0.065,7.688-0.13v1.874
						h-1.422c-3.424,0-4.586,2.843-4.586,6.073v35.403h-1.68l-31.787-35.985v26.812c0,4.265,1.551,6.073,6.268,6.073h0.258v1.873
						c-2.131-0.064-4.328-0.129-7.816-0.129c-1.68,0-5.428,0.064-7.689,0.129v-1.873c4.975-0.064,6.332-1.551,6.332-5.75v-28.686
						c0-2.261-2.197-3.812-6.654-3.94V179.709z"/>
					<path class="st0" d="M1364.748,187.849c0.711-3.683,1.033-6.072,1.162-10.337h1.357c0.453,1.421,1.422,2.132,3.295,2.132
						h31.916c2.066,0,2.648-0.517,3.617-2.132l1.098,0.517c-0.775,5.039-0.775,7.43-0.775,9.627l-1.484,0.581
						c-0.195-3.424-0.582-4.135-1.293-4.846c-0.775-0.774-2.326-1.163-4.652-1.163h-8.979v33.078c0,3.812,1.291,4.588,5.943,4.652
						v1.873c-3.555-0.064-6.332-0.129-9.498-0.129c-3.23,0-6.072,0.064-9.625,0.129v-1.873h0.84c3.811,0,4.844-0.388,4.844-5.427
						v-32.304h-8.785c-4.975,0-6.396,1.357-7.172,5.621H1364.748z"/>
				</g>
			</g>
		</g>
	</g>
</g>
<g id="Shield">
	<path class="st0" d="M18.36,30.453c0.422,0,1.078-0.803,1.406-1.719c0.201-0.557,0.298-1.037,0.298-1.534
		c0-0.435-0.106-0.961-0.298-1.486c-0.238-0.669-0.605-1.049-0.998-1.049c-0.48,0-0.726,0.412-0.775,1.316l-0.129,1.246
		c-0.152,1.166-0.162,1.288-0.162,1.59C17.701,29.756,17.979,30.453,18.36,30.453z"/>
	<path class="st0" d="M13.76,32.943h-0.041l-0.853-0.128l-0.479-0.052c-0.258,0-0.38,0.238-0.38,0.733
		c0,1.777,1.416,3.836,3.886,5.626c0.292,0.22,0.528,0.533,0.528,0.711c0,0.218-0.229,0.414-0.487,0.414
		c-0.155,0-0.54-0.122-0.832-0.264c-0.188-0.096-0.344-0.144-0.458-0.144c-0.323,0-0.535,0.268-0.535,0.673
		c0,0.467,0.377,1.398,1.192,2.956c0.533,1.015,1.323,1.783,2.234,2.163l2.956,1.254c0.158,0.062,0.266,0.218,0.266,0.391
		c0,0.236-0.172,0.435-0.398,0.463L19.766,47.8l-0.525,0.066l-0.85-0.066h-0.127c-0.416,0-0.577,0.08-0.577,0.289
		c0,0.33,0.362,1.146,0.962,2.147c0.705,1.178,1.318,1.843,1.698,1.843c0.154,0,0.31-0.132,0.411-0.327l0.722-1.516
		c0.121-0.26,0.716-0.719,1.708-1.314c0.628-0.383,1.254-0.631,1.841-0.723l1.182-0.202c0.313-0.052,0.473-0.26,0.473-0.625
		l-0.013-0.158l-0.196-1.25l-0.129-1.384l-0.134-1.246l-0.132-1.446c-0.013-0.372-0.116-0.543-0.324-0.543
		c-0.162,0-0.426,0.218-0.594,0.475c-1.034,1.576-1.75,2.103-2.855,2.103c-3.505,0-6.155-6.165-6.155-14.317
		c0-0.709,0.049-1.612,0.132-2.71c0.168-2.085,0.204-2.608,0.204-3.385c0-3.54-0.739-6.027-2.241-7.527l-0.92-0.918l-0.593-0.653
		l0.011,0.566c0,0.814-0.196,1.79-0.863,4.299c-0.124,0.465-0.196,0.912-0.196,1.195c0,0.44,0.159,0.919,0.525,1.496
		c0.214,0.338,0.419,0.575,0.595,0.655l0.785,0.395l0.129,0.921c-0.031,0.361,0.039,0.853,0.196,1.45
		c0.181,0.645,0.274,1.31,0.274,1.959c0,0.553-0.046,0.771-0.171,0.771c-0.247,0-0.687-0.677-1.083-1.682
		c-0.636-1.59-1.205-2.177-2.102-2.177c-0.719,0-1.187,0.122-2.048,0.535c0.209,0.256,0.339,0.431,0.399,0.527
		c0.051,0.078,0.248,0.455,0.595,1.116l0.92,1.775c0.635,1.232,1.008,1.929,1.115,2.103c0.24,0.385,0.553,0.697,0.919,0.925
		c0.114,0.062,0.466,0.26,1.051,0.591c0.323,0.174,0.543,0.425,0.543,0.605C14.327,32.732,14.081,32.943,13.76,32.943z"/>
	<path class="st0" d="M14.706,63.317l1.252,0.985c0.32,0.256,0.702,0.399,1.083,0.399c1.288,0,2.407-0.603,4.173-2.237
		c-0.918-0.134-1.347-0.238-1.908-0.463c-0.155-0.062-0.571-0.237-1.247-0.521c-1.06-0.453-1.853-0.665-2.515-0.665
		c-0.993,0-1.805,0.337-2.74,1.124l0.589,0.457L14.706,63.317z"/>
	<path class="st0" d="M56.517,59.572l-0.855-0.398c-1.127-0.517-1.98-2.327-1.98-4.212c0-0.252,0.051-0.501,0.137-0.715l0.46-1.12
		c0.134-0.314,0.201-0.669,0.201-1.047c0-0.685-0.225-1.372-0.661-2.041c-0.526-0.809-0.812-1.27-0.856-1.38
		c-0.388-1.039-0.587-1.33-0.91-1.33l-0.332,0.08l-0.461,0.26l-0.727,0.398l-0.853,1.056l-0.919,0.455
		c-0.551,0.276-1.071,1.448-1.071,2.416c0,1.708,0.193,2.179,2.446,6.069c0.879,1.5,1.339,2.8,1.339,3.757
		c0,2.692-2.412,4.611-7.251,5.77L41.2,68.312c-2.226,0.537-3.539,2.063-4.012,4.671c0.922-0.477,1.285-0.545,2.913-0.545
		l0.967,0.012l0.152,0.002c0.876,0,0.997-0.06,1.553-0.855c0.652-0.909,1.291-1.45,2.172-1.833l1.053-0.465l0.855-0.461l0.26-0.068
		c0.235,0,0.363,0.096,0.363,0.271c0,0.256-0.24,0.687-0.623,1.113c-0.758,0.841-1.053,1.548-1.053,2.546
		c0,0.633,0.153,1.003,0.724,1.728c0.36-0.817,0.53-1.042,1.316-1.712c1.836-1.576,2.691-2.746,2.691-3.679v-0.659v-0.789
		c0-0.843,0.143-1.12,0.583-1.12c0.195,0,0.354,0.076,0.405,0.2l0.326,0.783c0.077,0.186,0.298,0.304,0.556,0.304
		c0.25,0,0.631-0.3,0.959-0.765l0.659-0.915c0.329-0.459,0.476-0.855,0.476-1.284c0-0.256-0.054-0.511-0.147-0.757
		c-0.054-0.126-0.207-0.475-0.461-1.047c-0.152-0.338-0.271-0.791-0.271-1.03c0-0.431,0.217-0.685,0.59-0.685
		c0.193,0,0.367,0.076,0.468,0.206l0.528,0.651c0.113,0.142,0.299,0.23,0.499,0.23c0.24,0,0.52-0.23,0.682-0.555l0.526-1.053
		c0.137-0.266,0.208-0.471,0.208-0.587C57.117,59.962,56.903,59.75,56.517,59.572z"/>
	<path class="st0" d="M40.216,66.013c0.628,0.857,0.718,0.923,1.337,0.923c0.266,0,0.591-0.046,0.961-0.138l0.589-0.128
		c1.086-0.21,1.453-0.369,1.453-0.635c0-0.158-0.119-0.361-0.333-0.549l-0.721-0.655L42.78,64.17
		c-0.466-0.425-1.383-0.737-2.169-0.737c-0.791,0-1.249,0.16-2.371,0.805C38.996,64.711,39.766,65.394,40.216,66.013z"/>
	<path class="st0" d="M64.272,65.198c0-0.451-0.411-0.701-1.159-0.701c-1.772,0-2.883,1.019-3.572,3.293l0.393-0.07l0.595-0.064
		l0.592,0.064l0.289,0.02C62.87,67.739,64.272,66.502,64.272,65.198z"/>
	<path class="st0" d="M57.633,39.324l2.168,0.194c0.791,0.074,1.986,0.383,3.549,0.922c1.968,0.677,3.295,0.967,4.411,0.967
		c3.286,0,5.256-1.778,5.256-4.751c0-2.035-1.065-4.338-2.692-5.816c-0.928-0.827-1.851-1.45-2.172-1.45
		c-0.185,0-0.332,0.152-0.332,0.348l0.067,0.839l0.005,0.078c0,0.328-0.193,0.585-0.45,0.585c-0.333,0-0.706-0.433-1.135-1.316
		c-1.244-2.588-3.217-4.126-5.259-4.126c-0.346,0-0.587,0.144-0.587,0.348c0,0.134,0.106,0.457,0.323,0.951l0.525,1.182
		c0.139,0.312,0.214,0.517,0.214,0.605c0,0.074-0.126,0.146-0.28,0.146c-0.304,0-0.783-0.268-1.117-0.617l-0.98-1.054l-0.857-1.318
		c-0.688-1.049-1.236-1.528-2.697-2.297c-0.814-0.435-1.34-0.721-1.577-0.855c-0.302-0.172-0.582-0.266-0.817-0.266
		c-0.234,0-0.352,0.112-0.352,0.343c0,0.212,0.091,0.463,0.251,0.713c0.486,0.751,0.675,1.124,0.675,1.318
		c0,0.208-0.155,0.388-0.34,0.388c-0.506,0-1.571-1.034-2.508-2.43c-0.773-1.158-1.186-2.447-1.186-3.693
		c0-2.826,2.062-4.925,4.855-4.925c1.442,0,3.263,0.61,4.943,1.646l3.089,1.908c1.073,0.667,2.653,1.185,3.594,1.185
		c0.418,0,1.285-0.148,1.928-0.331c0.288-0.077,0.554-0.186,0.788-0.325c0.181-0.111,0.311-0.258,0.311-0.369
		c0-0.132-0.072-0.251-0.181-0.288l-0.393-0.131l-1.445-0.266c-0.375-0.067-0.974-0.288-1.771-0.66
		c-1.737-0.79-2.838-1.344-3.291-1.641c-1.08-0.708-1.808-1.123-2.167-1.244c-0.535-0.181-0.868-0.422-0.868-0.625
		c0-0.197,0.101-0.29,0.295-0.29c0.185,0,0.432,0.086,0.7,0.251c0.969,0.605,1.813,0.922,2.432,0.922l2.828,0.986
		c1.404,0.491,3.449,0.92,4.372,0.92c1.192,0,2.158-0.972,2.158-2.172c0-0.772-0.461-1.93-1.14-2.884
		c-0.153-0.215-0.311-0.337-0.443-0.337c-0.265,0-0.409,0.189-0.409,0.528l0.06,0.53l0.103,0.783c0,0.853-0.574,1.523-1.303,1.523
		c-0.268,0-0.615-0.07-1.034-0.207l-4.27-1.376c-3.584-1.158-5.238-1.514-7.034-1.514c-5.112,0.008-9.01,3.516-9.01,8.133
		c0,5.23,3.674,8.604,12.756,11.719c8.935,3.068,10.191,3.814,10.191,6.117c0,1.318-1.339,2.498-2.831,2.498
		c-0.605,0-1.135-0.05-1.576-0.132c-0.304-0.064-1.792-0.415-4.468-1.05c-2.699-0.649-5.153-0.925-8.183-0.925
		c-6.449,0-10.025,1.13-13.12,4.146c-0.77,0.753-1.03,0.867-1.92,0.867l-0.443-0.016l-0.92-0.064l-0.119-0.002
		c-0.775,0-1.341,0.359-1.854,1.186c-0.695,1.112-1.071,1.706-1.119,1.777c-0.183,0.248-0.464,0.393-0.75,0.393
		c-0.592,0-0.943-0.447-1.613-2.035c-0.326-0.775-0.796-1.448-1.38-1.979l-1.316-1.184c-0.215-0.19-0.331-0.369-0.331-0.501
		c0-0.146,0.093-0.357,0.261-0.613c0.631-0.915,0.848-1.324,0.923-1.715c0.175-0.873,0.201-0.915,0.561-0.915
		c0.409,0,0.525,0.405,0.556,1.909c0.01,0.435,0.185,1.038,0.53,1.773L32,41.822c0.09,0.204,0.323,0.332,0.592,0.332
		c0.68,0,1.54-1.598,1.773-3.291c0.188-1.412,0.338-1.847,0.63-1.847c0.122,0,0.229,0.05,0.289,0.138
		c0.066,0.096,0.268,0.489,0.591,1.182c0.173,0.365,0.464,0.703,0.856,0.987c0.378,0.279,0.646,0.435,0.788,0.463l0.08,0.008
		c0.533,0,0.714-0.348,0.84-1.59l0.065-0.655l-0.132-0.925l-0.092-0.635c0-0.422,0.149-0.677,0.389-0.677
		c0.145,0,0.321,0.092,0.492,0.262l0.659,0.661c0.437,0.433,0.879,0.655,1.3,0.655c0.546,0,0.882-0.222,0.882-0.583
		c0-0.316-0.122-0.627-0.608-1.52l-0.458-0.853c-0.528-0.991-0.946-1.384-1.44-1.384l-0.664,0.064l-0.784,0.329
		c-0.242,0.098-0.416,0.152-0.517,0.152c-0.124,0-0.209-0.112-0.209-0.26c0-0.589,0.383-1.518,1.117-2.678
		c0.52-0.833,0.879-2.612,1.051-5.164c0.224-3.433,0.684-5.658,1.163-5.658c0.329,0,0.45,0.276,0.45,1.01l-0.033,0.902l-0.024,0.629
		c0,0.615,0.135,1.107,0.296,1.107c0.563,0,1.231-0.837,1.763-2.197c0.222-0.571,0.339-1.023,0.339-1.341l-0.073-0.305l-1.313-2.436
		l-1.316-0.391c-0.243-0.072-0.409-0.183-0.461-0.294v-0.887v-0.72l-0.131-0.794l-0.266-0.657l-0.323-0.721
		c-1.442,0.781-2.125,1.295-2.632,1.97c-0.515,0.688-0.806,0.952-1.062,0.952c-0.17,0-0.319-0.161-0.319-0.347
		c0-0.162,0.065-0.514,0.197-1.068l0.041-0.368c0-1.414-0.861-2.805-2.275-3.704l-0.393,0.525l-0.463,0.657l-0.788,0.923
		c-0.251,0.291-0.477,0.738-0.66,1.313c-0.088,0.278-0.134,0.533-0.134,0.75l0.003,0.103l0.007,0.24
		c0,0.546-0.059,0.687-0.304,0.687l-0.163-0.072l-0.461-0.654l-0.72-0.79l-1.118-0.724l-0.59-0.458
		c-0.119,0.258-0.206,0.458-0.263,0.589c-0.204,0.458-0.315,0.812-0.328,1.055l-0.071,1.05l-0.064,1.114l0.008,0.193
		c0,0.577-0.139,0.797-0.489,0.797c-0.116,0-0.45-0.14-0.768-0.329c-0.289-0.169-0.623-0.268-0.951-0.268
		c-1.023,0-1.68,0.708-1.68,1.816c0,1.313,0.388,2.575,1.057,3.448l0.85,1.118c0.236,0.298,0.67,0.555,0.693,0.393l0.163-1.378
		l-0.199-1.117l-0.039-0.502c0-0.424,0.147-0.688,0.391-0.688c0.372,0,0.595,0.41,0.833,1.515l0.522,2.436l0.53,3.088
		c0.14,0.831,0.407,1.713,0.786,2.628c0.522,1.24,0.897,2.011,1.119,2.299c0.732,0.939,0.81,1.065,0.81,1.274
		c0,0.162-0.132,0.306-0.282,0.306c-0.139,0-0.344-0.07-0.592-0.196c-0.227-0.118-0.491-0.212-0.789-0.264l-0.514-0.074
		c-1.057,0-1.272,0.905-1.272,5.294c0,2.68,0.566,6.313,1.262,8.06l1.377,3.487c0.221,0.545,0.329,1.102,0.329,1.63
		c0,4.795-6.356,12.318-13.341,15.789c-2.599,1.284-3.428,2.522-3.614,5.386l-0.065,0.859c1.057-0.553,1.491-0.733,2.231-0.921
		c1.96-0.511,2.339-0.757,2.634-1.712l0.258-0.855c0.101-0.322,0.266-0.439,1.777-1.248c0.52-0.272,0.881-0.571,1.055-0.851
		c0.33-0.555,0.605-0.849,0.781-0.849c0.162,0,0.254,0.076,0.254,0.212l-0.054,0.234l-0.654,1.879l-0.08,0.461
		c0,1.392,0.762,2.526,2.184,3.251c0.233-1.52,0.393-2.041,0.856-2.756l1.181-1.843c0.44-0.685,0.623-1.514,0.623-2.814
		c0-0.735-0.059-1.492-0.162-2.053l-0.044-0.521c0-0.332,0.173-0.527,0.462-0.527c0.228,0,0.412,0.08,0.436,0.194l0.266,1.25
		c0.051,0.27,0.324,0.462,0.638,0.462c0.633,0,1.455-0.823,2.319-2.301c0.318-0.551,0.489-1.15,0.489-1.741l-0.099-0.891
		l-0.195-0.981l-0.016-0.192c0-0.431,0.24-0.733,0.581-0.733c0.151,0,0.272,0.056,0.292,0.128l0.391,1.518
		c0.132,0.503,0.487,0.855,0.853,0.855c0.442,0,1.2-0.761,1.644-1.646c0.398-0.783,0.594-1.673,0.594-2.688
		c0-1.404,0.145-1.805,0.658-1.805c0.165,0,0.298,0.058,0.327,0.156l0.263,0.855c0.101,0.313,0.288,0.521,0.471,0.521
		c0.272,0,1.008-0.795,1.502-1.64c0.132-0.218,0.201-0.435,0.201-0.611c0-0.282-0.188-0.565-0.594-0.904
		c-0.688-0.567-0.727-0.655-0.727-1.512c0-0.825,0.134-1.26,0.727-2.297c0.317-0.563,0.6-1.086,0.853-1.58
		c0.831-1.626,1.127-2.043,1.43-2.043c0.253,0,0.48,0.274,0.48,0.579c0,0.172-0.044,0.359-0.137,0.543
		c-0.177,0.37-0.265,0.633-0.265,0.781c0,0.258,0.217,0.473,0.488,0.473c0.302,0,0.704-0.138,1.159-0.395
		c0.176-0.104,0.791-0.338,1.838-0.725l2.174-0.787c0.356-0.13,0.802-0.2,1.316-0.2c0.404,0,0.794,0.044,1.179,0.132
		c0.776,0.176,1.283,0.268,1.516,0.268c0.594,0,1.122-0.513,1.122-1.096c0-0.439-0.453-1.298-1.058-1.997
		c-0.225-0.264-0.338-0.463-0.338-0.599l0.077-0.26c0.086-0.162,0.219-0.264,0.349-0.264c0.442,0,1.481,1.108,2.412,2.572
		c5.657,8.909,7.688,11.066,11.505,12.224c3.864,1.178,4.875,2.081,4.875,4.376c0,1.256-0.643,2.718-2.049,4.691
		c-2.862,4.004-3.553,5.622-3.553,8.264l0.003,0.487c0.323-0.138,0.564-0.248,0.724-0.332c0.535-0.271,0.892-0.431,1.049-0.461
		l1.641-0.326c0.494-0.102,0.933-0.735,0.933-1.344l-0.01-0.166l-0.197-1.448l-0.015-0.192c0-0.513,0.256-1.1,0.606-1.388
		c0.108-0.082,0.224-0.14,0.343-0.14c0.181,0,0.403,0.172,0.515,0.407l1.051,2.231c0.432,0.913,0.932,1.346,2.298,1.973
		c-0.178-0.791-0.242-1.198-0.242-1.586l0.046-0.517l0.197-1.054l0.07-0.849c0-0.914-0.155-1.562-0.463-1.973l-0.791-1.053
		c-0.256-0.351-0.487-0.773-0.654-1.254c-0.091-0.236-0.135-0.428-0.135-0.553c0-0.298,0.179-0.483,0.476-0.483
		c0.176,0,0.246,0.032,0.841,0.383c0.255,0.15,0.478,0.224,0.643,0.224c0.391,0,0.608-0.635,0.608-1.751
		c0-1.268-0.116-1.975-0.394-2.289l-0.989-1.116l-0.853-0.723c-0.206-0.178-0.35-0.401-0.35-0.573c0-0.282,0.217-0.481,0.536-0.481
		c0.297,0,0.928,0.142,1.455,0.332l0.3,0.062c0.272,0,0.375-0.156,0.375-0.545l-0.016-0.24l-0.198-1.384l-0.391-1.444
		c-0.129-0.471-0.202-0.543-0.499-0.543l-0.165,0.02l-1.637,0.324l-0.264,0.026c-2.154,0-4.431-1.819-5.128-4.1l-1.314-4.272
		c-0.407-1.32-1.391-2.572-3.159-4.016c-0.531-0.435-0.988-0.681-1.311-0.715l-1.188-0.136c-0.216-0.024-0.356-0.148-0.356-0.329
		C56.815,39.448,57.068,39.324,57.633,39.324z M35.479,19.006c1.301-0.484,1.712-0.708,2.236-1.182l0.724-0.657l0.067-0.02
		c0.191,0,0.329,0.211,0.329,0.491c0,0.84-0.894,2.378-1.823,3.958c-0.682,1.156-1,1.883-1.277,1.883
		c-0.323,0-0.641-0.505-0.711-1.112l-0.134-0.791l-0.329-0.923l-0.093-0.527C34.468,19.585,34.737,19.289,35.479,19.006z
		 M28.116,17.831l-0.008-0.171c0-0.359,0.115-0.494,0.4-0.494c0.175,0,0.501,0.147,0.728,0.337l1.777,1.442l1.112,0.595
		c0.307,0.162,0.476,0.377,0.476,0.633l-0.078,0.414c-0.162,0.554-0.033,1.171-0.043,1.401c-0.057,1.176-0.949,1.164-1.309,1.164
		c-0.217,0-0.103-0.136-0.618-0.727l-1.447-1.64C28.659,20.278,28.271,19.127,28.116,17.831z M30.614,28.805
		c-0.6-1.482-0.866-2.379-0.866-2.924c0-0.497,0.386-0.825,0.981-0.825c0.317,0,0.641,0.088,0.938,0.262
		c0.51,0.305,0.775,0.459,0.791,0.467l0.759,0.068l0.355-0.002l1.383-0.066l1.053-0.665l0.613,0.146
		c0.726,0,0.902,0.214,0.902,1.014c0,1.17-0.732,1.656-2.045,4.961c-0.582,1.452-0.696,2.297-1.559,2.297
		c-0.967,0-1.695-0.781-2.445-2.632L30.614,28.805z"/>
	<path class="st0" d="M32.785,31.168c0.145,0.759,0.425,1.055,0.99,1.055c0.644,0,1.042-0.441,1.115-1.25l0.131-1.448
		c0.086-0.959,0.129-1.464,0.129-1.5c0-0.142-0.072-0.286-0.196-0.403c-0.095-0.09-0.214-0.142-0.33-0.142l-0.062,0.008
		l-1.053,0.198h-0.855c-0.124,0-0.253,0.072-0.328,0.196l-0.129,0.328l0.326,1.581L32.785,31.168z"/>
	<path class="st0" d="M141.01,30.449c0.437,0,1.12-0.815,1.426-1.711c0.187-0.557,0.337-1.332,0.337-1.781
		c0-0.319-0.082-0.611-0.337-1.246c-0.296-0.719-0.599-1.052-0.966-1.052c-0.564,0-0.824,0.723-0.941,2.566l-0.066,1.054
		l-0.019,0.641C140.443,29.988,140.609,30.449,141.01,30.449z"/>
	<path class="st0" d="M136.452,31.831c0.362,0.178,0.605,0.421,0.605,0.609c0,0.306-0.243,0.509-0.603,0.509
		c-0.139,0-0.566-0.06-0.923-0.134l-0.486-0.046c-0.253,0-0.37,0.234-0.37,0.747c0,1.746,1.489,3.862,3.951,5.606
		c0.326,0.24,0.525,0.487,0.525,0.675c0,0.1-0.073,0.216-0.199,0.316c-0.116,0.084-0.24,0.134-0.352,0.134
		c-0.139,0-0.442-0.108-0.77-0.264c-0.189-0.104-0.36-0.148-0.484-0.148c-0.314,0-0.515,0.3-0.515,0.769
		c0,0.597,0.442,1.65,1.2,2.864c0.696,1.1,1.456,1.863,2.166,2.163l2.958,1.254c0.159,0.062,0.265,0.21,0.265,0.369
		c0,0.236-0.165,0.433-0.393,0.485l-0.53,0.062l-0.59,0.066l-0.788-0.066l-0.135-0.002c-0.408,0-0.571,0.086-0.571,0.296
		c0,0.312,0.298,0.981,0.965,2.141c0.726,1.26,1.238,1.843,1.623,1.843c0.161,0,0.322-0.132,0.419-0.327l0.724-1.516
		c0.095-0.206,0.688-0.659,1.708-1.314c0.621-0.401,1.249-0.649,1.839-0.723c1.577-0.213,1.712-0.284,1.712-0.945
		c0-0.224-0.07-0.657-0.199-1.29c-0.07-0.336-0.132-0.797-0.199-1.384l-0.126-1.246l-0.134-1.446
		c-0.016-0.367-0.122-0.543-0.326-0.543c-0.137,0-0.357,0.202-0.527,0.475c-0.778,1.26-1.913,2.109-2.834,2.109
		c-3.673,0-6.173-5.858-6.173-14.447l0.067-2.586l0.196-3.088l0.033-1.092c0-2.647-0.922-5.385-2.266-6.732l-0.923-0.918
		l-0.59-0.653l0.006,0.566c0,0.605-0.181,1.714-0.466,2.782c-0.248,0.938-0.381,1.439-0.398,1.517
		c-0.089,0.375-0.131,0.781-0.131,1.192c0,0.925,0.45,1.794,1.119,2.154l0.727,0.395l0.132,0.921
		c-0.039,0.361,0.033,0.849,0.193,1.45c0.178,0.653,0.272,1.32,0.272,1.971c0,0.549-0.052,0.759-0.169,0.759
		c-0.253,0-0.687-0.677-1.088-1.682c-0.634-1.59-1.2-2.177-2.099-2.177c-0.719,0-1.185,0.122-2.043,0.535
		c0.688,0.887,1.104,1.631,1.906,3.417C134.409,30.541,134.813,31.012,136.452,31.831z"/>
	<path class="st0" d="M137.372,63.317l1.254,0.985c0.317,0.256,0.708,0.399,1.102,0.399c1.29,0,2.375-0.589,4.151-2.237
		c-1.383-0.234-1.597-0.302-3.152-0.983c-1.078-0.479-1.776-0.667-2.469-0.667c-1.04,0-1.841,0.328-2.794,1.126l0.589,0.457
		L137.372,63.317z"/>
	<path class="st0" d="M179.245,59.572l-0.92-0.398c-1.078-0.461-1.973-2.313-1.973-4.074c0-0.198,0.07-0.487,0.197-0.853l0.398-1.12
		c0.131-0.367,0.196-0.739,0.196-1.091c0-0.647-0.198-1.268-0.656-1.997c-0.453-0.737-0.719-1.194-0.791-1.38
		c-0.379-0.979-0.608-1.302-0.931-1.302c-0.232,0-0.452,0.084-0.842,0.313l-0.657,0.398l-0.922,1.056l-0.923,0.455
		c-0.549,0.279-1.072,1.468-1.072,2.46c0,1.42,0.312,2.191,2.455,6.025c0.909,1.622,1.337,2.824,1.337,3.741
		c0,2.676-2.73,4.879-7.188,5.786c-5.326,1.094-6.486,1.971-7.099,5.394c0.921-0.477,1.288-0.545,2.913-0.545l0.964,0.012
		l0.153,0.002c0.879,0,0.997-0.06,1.558-0.855c0.644-0.909,1.285-1.45,2.17-1.833l1.052-0.465l0.853-0.461l0.263-0.068
		c0.238,0,0.364,0.096,0.364,0.274c0,0.226-0.214,0.603-0.628,1.11c-0.636,0.771-1.004,1.564-1.004,2.167
		c0,0.879,0.145,1.322,0.675,2.107c0.368-0.817,0.535-1.042,1.316-1.712c1.839-1.576,2.694-2.746,2.694-3.679v-0.659v-0.789
		c0-0.843,0.139-1.12,0.579-1.12c0.197,0,0.357,0.076,0.409,0.2l0.328,0.783c0.075,0.184,0.289,0.294,0.556,0.294
		c0.468,0,0.802-0.336,1.613-1.67c0.344-0.565,0.481-0.93,0.481-1.302c0-0.234-0.052-0.483-0.155-0.739
		c-0.049-0.124-0.201-0.471-0.46-1.047c-0.148-0.338-0.269-0.791-0.269-1.03c0-0.431,0.219-0.685,0.59-0.685
		c0.198,0,0.371,0.076,0.475,0.206l0.52,0.651c0.119,0.142,0.148,0.23,0.348,0.23c0.242,0,0.674-0.23,0.839-0.555l0.526-1.053
		c0.133-0.26,0.201-0.471,0.201-0.597C179.778,59.934,179.569,59.71,179.245,59.572z"/>
	<path class="st0" d="M162.877,66.013c0.629,0.857,0.716,0.923,1.343,0.923c0.258,0,0.587-0.046,0.958-0.138l0.592-0.128
		c1.12-0.212,1.458-0.375,1.458-0.673c0-0.182-0.103-0.364-0.276-0.511l-0.788-0.655l-0.722-0.661
		c-0.447-0.403-1.365-0.729-2.073-0.729c-0.816,0-1.484,0.216-2.463,0.797C161.664,64.711,162.428,65.394,162.877,66.013z"/>
	<path class="st0" d="M186.678,65.943c0.17-0.282,0.258-0.539,0.258-0.745c0-0.443-0.407-0.701-1.125-0.701
		c-1.805,0-2.911,1.007-3.609,3.293l0.393-0.07l0.662-0.064l0.526,0.064l0.357,0.022c0.667,0,1.01-0.072,1.287-0.288
		C185.835,67.146,186.25,66.65,186.678,65.943z"/>
	<path class="st0" d="M148.348,23.184c0.036,0,0.122-0.609,0.202-1.412l-0.202-1.117l-0.043-0.502c0-0.424,0.15-0.688,0.398-0.688
		c0.369,0,0.595,0.41,0.83,1.515l0.528,2.436l0.524,3.088c0.143,0.831,0.41,1.713,0.792,2.628c0.517,1.24,0.891,2.011,1.114,2.299
		c0.729,0.939,0.814,1.065,0.814,1.274c0,0.162-0.134,0.306-0.286,0.306c-0.14,0-0.341-0.07-0.595-0.196
		c-0.227-0.118-0.486-0.212-0.786-0.264l-0.48-0.072c-1.089,0-1.311,0.875-1.311,5.242c0,2.722,0.565,6.351,1.264,8.11l1.38,3.487
		c0.219,0.545,0.334,1.102,0.334,1.634c0,4.807-6.503,12.488-13.348,15.785c-2.665,1.278-3.454,2.614-3.681,6.245
		c1.14-0.545,1.597-0.723,2.301-0.921c1.938-0.543,2.354-0.819,2.626-1.712l0.264-0.855c0.117-0.365,0.362-0.545,1.712-1.248
		c0.506-0.263,0.868-0.557,1.052-0.851c0.344-0.567,0.606-0.847,0.779-0.847c0.19,0,0.288,0.126,0.288,0.34l-0.015,0.104
		l-0.727,1.879l-0.08,0.463c0,1.38,0.771,2.526,2.187,3.249c0.091-0.346,0.155-0.609,0.194-0.785
		c0.233-1.005,0.458-1.666,0.657-1.971l1.254-1.843c0.45-0.665,0.533-1.103,0.533-2.8l-0.075-2.067l-0.039-0.527
		c0-0.342,0.162-0.527,0.46-0.527c0.227,0,0.419,0.086,0.435,0.2l0.194,1.25c0.046,0.266,0.319,0.462,0.643,0.462
		c0.637,0,1.45-0.813,2.319-2.301c0.331-0.581,0.466-1.033,0.466-1.57c0-0.417-0.085-1.336-0.207-2.043l-0.028-0.389
		c0-0.326,0.193-0.533,0.502-0.533c0.165,0,0.294,0.052,0.317,0.124l0.461,1.518c0.155,0.505,0.504,0.855,0.863,0.855
		c1.008,0,2.053-2.065,2.161-4.272c0.065-1.388,0.238-1.871,0.662-1.871c0.163,0,0.289,0.06,0.326,0.16l0.259,0.855
		c0.097,0.313,0.286,0.521,0.472,0.521c0.166,0,0.5-0.292,0.913-0.785c0.227-0.284,0.429-0.567,0.592-0.855
		c0.126-0.232,0.194-0.467,0.194-0.693c0-0.332-0.068-0.422-0.592-0.821c-0.481-0.362-0.722-0.827-0.722-1.378
		c0-0.954,0.404-1.977,1.574-4.012c1.074-1.845,1.218-2.059,1.479-2.059c0.245,0,0.437,0.244,0.437,0.561
		c0,0.194-0.051,0.393-0.139,0.577c-0.175,0.385-0.268,0.645-0.268,0.787c0,0.256,0.234,0.467,0.522,0.467
		c0.32,0,0.727-0.138,1.195-0.395c0.281-0.158,0.876-0.403,1.776-0.725c1.221-0.439,1.967-0.707,2.233-0.787
		c0.412-0.13,0.881-0.202,1.353-0.202c0.38,0,0.762,0.046,1.146,0.134c0.748,0.176,1.258,0.268,1.514,0.268
		c0.597,0,1.061-0.457,1.061-1.04c0-0.262-0.179-0.759-0.406-1.137c-0.339-0.545-0.537-0.861-0.589-0.915
		c-0.29-0.305-0.404-0.471-0.404-0.593l0.072-0.266c0.081-0.162,0.222-0.264,0.37-0.264c0.52,0,1.536,1.062,2.454,2.572
		c5.155,8.416,7.653,11.076,11.443,12.224c3.95,1.198,4.876,2.031,4.876,4.386c0,1.248-0.66,2.758-2.051,4.681
		c-2.629,3.649-3.554,5.784-3.554,8.21l0.007,0.541c0.321-0.138,0.564-0.248,0.722-0.332c0.54-0.271,0.889-0.431,1.055-0.461
		l1.636-0.326c0.517-0.104,0.93-0.719,0.93-1.38l-0.008-0.13l-0.126-1.448l-0.015-0.228c0-0.815,0.398-1.486,0.889-1.486
		c0.183,0,0.393,0.166,0.504,0.401l1.053,2.231c0.427,0.913,0.928,1.346,2.3,1.973c-0.154-0.599-0.206-0.885-0.206-1.208
		l0.075-0.895c0.162-1.23,0.211-1.819,0.211-2.558c0-0.483-0.141-0.871-0.476-1.318l-0.791-1.053
		c-0.514-0.689-0.718-1.206-0.718-1.795c0-0.379,0.087-0.507,0.349-0.507l0.305,0.064c0.034,0.02,0.23,0.13,0.589,0.33
		c0.266,0.15,0.492,0.224,0.657,0.224c0.397,0,0.595-0.617,0.595-1.849c0-1.711-0.32-2.53-1.313-3.307l-0.918-0.723
		c-0.162-0.128-0.269-0.342-0.269-0.537c0-0.316,0.186-0.521,0.484-0.521c0.184,0,0.443,0.052,0.765,0.136l0.727,0.2l0.279,0.062
		c0.224,0,0.325-0.174,0.325-0.557l-0.013-0.228l-0.196-1.384c-0.209-1.434-0.445-1.981-0.869-1.981l-0.116,0.014l-1.708,0.324
		l-0.289,0.026c-2.053,0-4.476-1.947-5.103-4.1l-1.249-4.272c-0.372-1.278-1.487-2.688-3.159-4.016
		c-0.546-0.424-1.022-0.679-1.379-0.715l-1.181-0.136c-0.215-0.024-0.36-0.154-0.36-0.322c0-0.273,0.227-0.401,0.713-0.401
		c1.667,0,3.449,0.341,5.825,1.118c2.158,0.709,3.338,0.967,4.392,0.967c3.293,0,5.274-1.716,5.274-4.561
		c0-1.426-0.517-3.219-1.252-4.36c-0.641-0.985-1.721-1.999-3.095-2.89c-0.201-0.134-0.383-0.206-0.517-0.206
		c-0.186,0-0.337,0.146-0.337,0.335l0.067,0.853l0.003,0.078c0,0.322-0.186,0.585-0.419,0.585c-0.364,0-0.742-0.427-1.161-1.316
		c-1.211-2.568-3.163-4.118-5.174-4.118c-0.44,0-0.69,0.154-0.69,0.423c0,0.202,0.119,0.505,0.341,0.869
		c0.211,0.33,0.408,0.731,0.592,1.182c0.103,0.256,0.158,0.449,0.158,0.563c0,0.12-0.104,0.188-0.3,0.188
		c-0.294,0-0.778-0.268-1.107-0.617c-0.656-0.697-0.984-1.049-0.988-1.054l-0.852-1.318c-0.664-1.015-1.394-1.658-2.627-2.297
		l-1.649-0.855c-0.329-0.172-0.618-0.266-0.84-0.266c-0.204,0-0.307,0.102-0.307,0.3c0,0.206,0.101,0.469,0.297,0.755
		c0.348,0.515,0.607,1.07,0.607,1.31c0,0.224-0.144,0.396-0.33,0.396c-0.461,0-1.285-0.827-2.446-2.43
		c-0.832-1.15-1.257-2.401-1.257-3.693c0-2.767,2.133-4.925,4.881-4.925c1.409,0,3.174,0.592,4.917,1.646l3.157,1.908
		c1.129,0.683,2.654,1.185,3.608,1.185c0.522,0,0.675-0.029,1.851-0.331c0.345-0.088,0.629-0.194,0.853-0.325
		c0.142-0.085,0.241-0.24,0.241-0.387c0-0.256-0.158-0.371-0.575-0.401c-1.463-0.109-4.5-1.307-6.501-2.568
		c-1.169-0.732-1.895-1.151-2.171-1.244c-0.543-0.193-0.903-0.473-0.903-0.7c0-0.101,0.111-0.158,0.284-0.158l0.383,0.067
		l2.865,1.049l2.758,0.986c1.355,0.481,3.457,0.92,4.418,0.92c1.246,0,2.11-0.861,2.11-2.11c0-0.628-0.155-1.339-0.415-1.83
		c-0.4-0.786-0.925-1.448-1.14-1.448c-0.256,0-0.398,0.259-0.398,0.703l0.028,0.349l0.083,0.845c0,0.886-0.489,1.463-1.242,1.463
		c-0.294,0-0.656-0.072-1.076-0.209l-4.273-1.376c-3.713-1.199-5.158-1.514-6.983-1.514c-5.165,0-9.06,3.487-9.06,8.133
		c0,5.238,3.595,8.524,12.823,11.719c8.952,3.103,10.118,3.814,10.118,6.173c0,1.356-1.269,2.441-2.859,2.441
		c-0.587,0-1.104-0.05-1.54-0.132c-0.387-0.08-1.877-0.429-4.472-1.05c-2.743-0.665-5.07-0.925-8.172-0.925
		c-6.52,0-9.659,0.995-13.061,4.146c-0.785,0.733-1.104,0.867-1.983,0.867l-0.445-0.016l-1.036-0.066
		c-0.789,0-1.383,0.377-1.859,1.186l-1.053,1.777c-0.144,0.244-0.432,0.393-0.752,0.393c-0.683,0-1.044-0.451-1.683-2.035
		c-0.332-0.843-0.785-1.52-1.311-1.979l-1.383-1.184c-0.206-0.18-0.328-0.348-0.328-0.481c0-0.134,0.118-0.353,0.328-0.633
		c0.209-0.268,0.406-0.573,0.593-0.917c0.203-0.371,0.311-0.641,0.329-0.797l0.064-0.589c0.051-0.192,0.242-0.327,0.471-0.327
		c0.437,0,0.512,0.29,0.522,1.909c0,0.414,0.176,1.02,0.523,1.773l0.721,1.578c0.098,0.204,0.325,0.332,0.595,0.332
		c0.685,0,1.545-1.6,1.773-3.291c0.188-1.4,0.339-1.847,0.628-1.847c0.271,0,0.391,0.17,0.951,1.32
		c0.173,0.354,0.443,0.693,0.788,0.987c0.321,0.268,0.595,0.433,0.786,0.463l0.072,0.002c0.543,0,0.724-0.339,0.851-1.584
		l0.062-0.655l-0.13-0.925l-0.089-0.635c0-0.422,0.147-0.677,0.389-0.677c0.142,0,0.319,0.092,0.492,0.262l0.656,0.661
		c0.437,0.441,0.884,0.659,1.324,0.659c0.563,0,0.912-0.246,0.912-0.647c0-0.33-0.075-0.487-0.656-1.46
		c-0.06-0.094-0.212-0.379-0.461-0.853c-0.584-1.11-0.858-1.384-1.373-1.384l-0.667,0.064l-0.855,0.329
		c-0.253,0.098-0.43,0.152-0.522,0.152c-0.112,0-0.202-0.114-0.202-0.266c0-0.593,0.39-1.526,1.12-2.672
		c0.45-0.713,0.829-2.48,1.114-5.164l0.335-3.088c0.198-1.896,0.406-2.57,0.788-2.57c0.139,0,0.248,0.059,0.263,0.139l0.194,0.984
		v0.789c0,0.959,0.103,1.737,0.224,1.737c0.279,0,0.688-0.326,1.091-0.883c0.284-0.399,0.505-0.84,0.657-1.314
		c0.217-0.706,0.332-1.285,0.332-1.724c0-1.52-0.641-2.173-2.699-2.748c-0.207-0.059-0.344-0.126-0.391-0.198l-0.07-0.593v-1.111
		l-0.134-0.794l-0.255-0.657l-0.335-0.721l-0.523,0.325c-1.343,0.843-1.669,1.095-2.109,1.645c-0.597,0.757-0.803,0.944-1.052,0.944
		c-0.181,0-0.323-0.125-0.323-0.284l0.261-1.123l0.023-0.191c0-1.44-0.809-2.834-2.257-3.881l-0.46,0.525l-0.463,0.657l-0.786,0.923
		c-0.458,0.535-0.731,1.264-0.731,1.949l0.007,0.217l0.008,0.219c0,0.52-0.08,0.698-0.323,0.698l-0.144-0.062l-0.526-0.654
		l-0.656-0.79l-1.185-0.724l-0.591-0.458c-0.634,1.377-0.66,1.524-0.66,3.293l0.002,0.551c0,0.593-0.195,0.951-0.512,0.951
		c-0.154,0-0.432-0.113-0.801-0.327c-0.296-0.169-0.649-0.268-0.978-0.268c-0.956,0-1.659,0.812-1.659,1.922
		c0,1.204,0.259,2.029,1.058,3.342C147.354,22.493,148.036,23.184,148.348,23.184z M158.212,19.011
		c0.84-0.305,1.747-0.799,2.169-1.181l0.721-0.665l0.072-0.021c0.183,0,0.327,0.214,0.327,0.492c0,0.84-0.771,2.158-1.702,3.745
		c-0.685,1.154-1.12,2.097-1.398,2.097c-0.323,0-0.642-0.501-0.716-1.112l0.085-0.575l-0.546-1.137l-0.096-0.53
		C157.128,19.567,157.374,19.311,158.212,19.011z M155.888,25.852l0.348-0.002l1.448-0.066l0.984-0.665l0.383-0.074
		c0.718,0,1.561,0.723,1.561,1.478c0,0.647-0.868,1.031-1.218,1.953l-0.726,2.962c-0.535,1.398-1.221,2.097-2.071,2.097
		c-0.99,0-1.742-0.791-2.464-2.63c-0.336-0.847-0.62-1.548-0.856-2.101c-0.543-1.294-0.837-2.247-0.837-2.742
		c0-0.635,0.362-1.007,0.964-1.007c0.31,0,0.629,0.088,0.923,0.262c0.501,0.296,0.767,0.457,0.793,0.467L155.888,25.852z
		 M151.169,17.166c0.175,0,0.504,0.147,0.734,0.337l1.771,1.442l1.12,0.595c0.313,0.165,0.497,0.45,0.497,0.768l-0.039,0.279
		l-0.326,1.187l-0.204,1.316c-0.021,0.156-0.165,0.268-0.344,0.268l-0.047-0.006c-0.271-0.082-0.97-0.378-1.429-0.905l-0.992-1.662
		c-0.153-0.166-0.539-0.794-0.864-1.839c-0.116-0.38-0.206-0.752-0.258-1.114l-0.015-0.189
		C150.772,17.31,150.89,17.166,151.169,17.166z"/>
	<path class="st0" d="M154.856,28.212l0.328,1.581l0.264,1.376c0.149,0.759,0.273,1.055,0.839,1.055c0.645,0,1.195-0.441,1.264-1.25
		l0.133-1.448c0.09-0.959,0.131-1.464,0.131-1.5c0-0.142-0.072-0.286-0.193-0.403c-0.099-0.09-0.218-0.142-0.339-0.142l-0.059,0.008
		l-1.049,0.198h-0.791c-0.119,0-0.24,0.072-0.329,0.196C154.926,28.067,154.856,28.19,154.856,28.212z"/>
	<path class="st0" d="M59.016,184.928l0.097-0.316c0-0.18-0.141-0.348-0.496-0.603c-1.218-0.877-1.75-2.227-1.836-4.669
		c-0.072-1.851-0.175-3.06-0.329-3.615c-0.039-0.124-0.432-1.065-1.187-2.822c-0.291-0.697-0.558-1.48-0.791-2.367
		c-0.155-0.607-0.344-0.793-0.817-0.793c-1.791,0-3.137,1.526-3.137,3.543c0,1.19,0.494,3.055,1.395,5.336
		c1.265,3.191,1.601,4.328,1.601,5.458c0,2.414-0.964,3.465-4.297,4.663c-3.766,1.35-5.53,3.291-6.179,6.77
		c0.294-0.116,0.51-0.198,0.657-0.263c0.419-0.172,0.726-0.274,0.915-0.33l1.054-0.26c0.904-0.222,1.628-0.735,1.774-1.248
		l0.266-0.917c0.064-0.226,0.193-0.377,0.395-0.461l0.592-0.263l0.592-0.266l0.129,0.266l-0.26,0.855
		c-0.091,0.282-0.135,0.793-0.135,1.532c0,1.438,0.282,2.285,1.12,3.331c0.391-0.911,0.515-1.126,1.246-2.239
		c1.066-1.604,1.448-2.455,1.448-3.217v-1.056c0-0.989,0.178-1.446,0.572-1.446c0.141,0,0.273,0.072,0.348,0.202l0.331,0.523
		c0.1,0.168,0.276,0.266,0.462,0.266c0.194,0,0.549-0.256,0.742-0.551c0.474-0.719,0.766-1.636,0.766-2.346l-0.068-0.725
		l-0.064-0.741c0-0.399,0.162-0.571,0.54-0.571c0.256,0,0.363,0.102,0.583,0.593c0.139,0.319,0.332,0.527,0.496,0.527
		c0.18,0,0.388-0.146,0.553-0.397l0.523-0.789L59.016,184.928z"/>
	<path class="st0" d="M27.132,175.795c0.286,0.286,0.463,0.457,0.527,0.523c1.281,1.328,1.474,1.458,2.092,1.458
		c0.572,0,1.768-0.326,2.444-0.665c0.284-0.144,0.458-0.321,0.458-0.455c0-0.088-0.237-0.355-0.655-0.727l-0.721-0.663
		c-0.551-0.493-1.363-0.956-1.75-0.956c-0.753,0-1.528,0.335-2.723,1.156C26.95,175.613,27.054,175.717,27.132,175.795z"/>
	<path class="st0" d="M44.419,188.676c0.201,0.086,0.559,0.132,1.043,0.132c0.299,0,0.574-0.046,0.798-0.132l1.386-0.523
		l1.314-0.461c0.354-0.126,0.594-0.327,0.594-0.509c0-0.094-0.297-0.238-0.727-0.346c-0.295-0.076-0.627-0.182-0.988-0.327
		c-1.617-0.655-1.854-0.745-2.427-0.745c-1.288,0-2.586,0.625-3.356,1.598c0.703,0.295,0.95,0.413,1.316,0.659
		C43.964,188.409,44.311,188.628,44.419,188.676z"/>
	<path class="st0" d="M64.059,193.725c-0.083,0-0.238,0.076-0.445,0.216c-0.473,0.308-0.801,0.505-0.982,0.587l-1.908,0.851
		c-1.273,0.567-2.392,2.267-2.392,3.605c0,0.449,0.088,0.829,0.355,1.594c0.437-1.058,0.742-1.238,2.233-1.32
		c1.688-0.092,3.294-3.114,3.294-5.162C64.215,193.895,64.147,193.725,64.059,193.725z"/>
	<path class="st0" d="M15.309,146.16c-0.129,0-0.365-0.146-0.67-0.413c-0.755-0.653-1.574-0.991-2.428-0.991
		c-0.276,0-0.657,0.048-1.12,0.136l0.329,0.725l0.984,2.438l1.384,2.099l1.439,0.991c0.145,0.092,0.276,0.226,0.399,0.389
		c0.132,0.184,0.199,0.335,0.199,0.435c0,0.12-0.114,0.216-0.261,0.226l-1.318,0.062c-0.202,0.01-0.362,0.132-0.362,0.279
		c0,0.224,0.191,0.887,0.562,1.957l0.659,1.909l1.117,1.048l1.181,0.859c0.349,0.25,0.559,0.535,0.559,0.745
		c0,0.182-0.113,0.363-0.231,0.375l-0.656,0.062c-0.215,0.02-0.336,0.208-0.336,0.529c0,0.491,0.461,1.382,1.321,2.56
		c1.016,1.386,1.732,1.843,2.893,1.843h0.987c0.471,0,0.758,0.23,0.758,0.603c0,0.308-0.197,0.489-0.631,0.583
		c-0.91,0.188-1.185,0.372-1.185,0.793c0,0.168,0.117,0.419,0.331,0.717l0.53,0.725c0.434,0.601,0.928,0.996,1.246,0.996
		c0.178,0,0.592-0.184,0.959-0.605c0.587-0.677,1.262-1.228,2.13-1.442c2.283-0.579,2.761-0.817,2.761-1.348
		c0-0.186-0.088-0.449-0.261-0.755c-0.728-1.304-0.986-2.147-0.986-3.219c0-0.817-0.213-1.39-0.513-1.39
		c-0.121,0-0.326,0.202-0.54,0.531c-0.539,0.831-1.461,1.386-2.299,1.386c-2.276,0-5.017-3.563-6.377-8.286
		c-0.315-1.094-0.483-2.345-0.483-3.547c0-1.236,0.167-2.628,0.483-4.016c0.437-1.927,0.68-3.002,0.721-3.221l0.085-0.891
		c0-1.63-1.501-3.727-3.831-5.354c0.085,0.367,0.134,0.613,0.134,0.737c0,0.206-0.091,0.775-0.266,1.696l-0.116,1.334
		c0,1.176,0.209,2.43,0.576,3.465c0.336,0.945,0.422,1.244,0.422,1.5l-0.023,0.276C15.505,145.961,15.403,146.16,15.309,146.16z"/>
	<path class="st0" d="M19.218,151.473c0.106,0,0.24-0.124,0.355-0.329l0.723-1.32c0.124-0.218,0.238-0.449,0.471-0.803
		c0.261-0.389,0.456-0.769,0.456-0.975c0-0.779-0.72-1.742-1.649-2.229c-0.484,0.917-0.928,2.976-0.928,4.282
		C18.644,150.867,18.895,151.473,19.218,151.473z"/>
	<path class="st0" d="M26.692,145.567c0.162,0,0.297-0.433,0.297-0.935l-0.121-0.791c-0.125-0.377-0.187-0.719-0.187-1.005
		c0-0.365,0.106-0.567,0.308-0.567c0.592,0,1.202,1.705,1.458,4.076l0.258,2.432c0.098,0.865,0.365,1.752,0.791,2.63
		c0.6,1.226,1.187,2.061,1.708,2.429c0.631,0.443,1.018,0.879,1.018,1.122c0,0.204-0.167,0.395-0.347,0.395
		c-0.02,0-0.468-0.16-1.329-0.467l-0.553-0.078c-1.313,0-1.753,0.751-1.753,3.01c0,2.736,1.844,6.67,3.886,8.312l3.021,2.436
		c1.536,1.228,2.697,3.275,2.697,4.735c0,1.923-2.107,3.812-5.718,5.125l-2.171,0.783c-1.683,0.615-2.361,1.703-3.023,4.865
		c0.859-0.264,1.237-0.332,1.812-0.332l0.292,0.008l0.976,0.02c0.882,0,1.521-0.531,1.521-1.27v-0.593
		c0-0.178,0.245-0.421,0.592-0.595c0.589-0.286,0.897-0.437,0.917-0.459l0.727-0.591c0.113-0.092,0.242-0.148,0.367-0.148
		c0.196,0,0.36,0.19,0.36,0.409c0,0.162-0.049,0.369-0.134,0.593c-0.225,0.581-0.349,1.374-0.349,2.259
		c0,1.61,0.256,2.478,1.071,3.657c0.075-0.437,0.142-0.719,0.197-0.853c0.133-0.332,0.511-0.927,1.119-1.773
		c0.992-1.392,1.724-3.088,1.724-4.002l-0.02-0.278l-0.195-1.508c0-0.274,0.122-0.531,0.329-0.723
		c0.143-0.124,0.302-0.192,0.45-0.192c0.28,0,0.454,0.166,0.673,0.653c0.155,0.367,0.341,0.591,0.468,0.591
		c0.23,0,0.682-0.603,0.972-1.314c0.219-0.521,0.33-0.991,0.33-1.39c0-0.24-0.067-0.529-0.196-0.845
		c-0.134-0.328-0.209-0.585-0.209-0.747c0-0.168,0.054-0.25,0.274-0.435c0.108-0.082,0.219-0.134,0.333-0.134
		c0.126,0,0.26,0.052,0.39,0.134l0.59,0.395c0.201,0.132,0.379,0.202,0.527,0.202c0.266,0,0.641-0.296,0.923-0.731
		c0.569-0.877,0.93-1.598,0.93-1.871c0-0.176-0.108-0.3-0.473-0.557c-1.308-0.923-2.169-2.321-2.169-3.517
		c0-0.278,0.064-0.593,0.197-0.951l0.656-1.777c0.33-0.893,0.51-1.358,0.525-1.384l0.194-0.072c0.224,0,0.359,0.186,0.359,0.507
		c0,0.216-0.052,0.467-0.155,0.749c-0.16,0.433-0.276,0.955-0.276,1.25c0,0.473,0.242,0.727,0.687,0.727
		c0.326,0,0.7-0.09,1.099-0.262c1.991-0.861,3.562-1.324,4.514-1.324c0.895,0,1.45,0.196,2.389,0.859
		c0.248,0.174,0.458,0.266,0.607,0.266c0.114,0,0.256-0.1,0.381-0.266c0.082-0.112,0.132-0.228,0.132-0.326
		c0-0.238-0.14-0.545-0.396-0.855c-0.338-0.417-0.466-0.673-0.466-0.93c0-0.208,0.137-0.338,0.354-0.338
		c1.032,0,2.647,3.263,4.191,8.434c1.212,4.082,1.55,4.495,5.451,6.708c3.302,1.863,4.556,3.709,4.556,6.712
		c0,2.952-0.817,6.736-2.521,11.693c-0.535,1.568-0.77,2.63-0.77,3.503c0,0.695,0.134,1.368,0.646,3.135
		c0.238,0.843,0.391,1.354,0.458,1.512c0.075,0.194,0.251,0.521,0.525,0.987l0.393-0.793l0.923-0.987
		c0.777-0.831,1.196-2.013,1.196-3.397c0-0.677-0.118-1.408-0.343-2.125c-0.166-0.525-0.273-0.973-0.273-1.16
		c0-0.417,0.31-0.809,0.629-0.809c0.131,0,0.31,0.116,0.496,0.331l0.984,1.113c0.613,0.691,0.817,0.819,1.58,0.988l0.067-0.919
		l0.065-1.079c0-1.57-0.575-3.333-1.448-4.444c-0.522-0.665-0.76-1.076-0.76-1.308c0-0.242,0.173-0.467,0.357-0.467
		c0.065,0,0.16,0.05,0.271,0.132c0.634,0.473,0.962,0.667,1.135,0.667c0.318,0,0.605-0.793,0.605-1.66
		c0-1.246-0.522-2.68-1.341-3.673c-0.422-0.509-0.686-0.835-0.788-0.983c-0.091-0.126-0.132-0.25-0.132-0.377
		c0-0.282,0.23-0.483,0.569-0.483c0.248,0,0.401,0.064,0.811,0.33c0.194,0.126,0.372,0.196,0.505,0.196
		c0.512,0,0.697-0.721,0.697-2.674l-0.02-0.809l-0.067-1.186c-0.075-1.39-0.197-1.636-0.786-1.636h-0.525
		c-3.208,0-4.7-2.031-5.527-7.501c-0.595-3.952-2.071-6.76-3.878-7.365c-1.08-0.359-1.468-0.595-1.468-0.881
		c0-0.182,0.299-0.362,0.625-0.362c0.235,0,0.791,0.146,1.241,0.33c2.619,1.057,4.832,1.576,6.756,1.576
		c3.149,0,5.633-2.317,5.633-5.258c0-2.245-1.069-4.531-2.991-6.377c-0.523-0.513-1.092-0.845-1.642-0.987l-0.126-0.01l-0.333,0.11
		l0.135,0.949l0.258,0.663l0.072,0.274c0,0.14-0.135,0.25-0.311,0.25c-0.193,0-0.373-0.1-0.484-0.266l-1.182-1.777
		c-0.938-1.402-2.993-2.574-4.516-2.574c-0.541,0-0.882,0.24-0.882,0.623c0,0.186,0.179,0.525,0.401,0.769
		c0.334,0.381,0.598,0.835,0.598,1.049l-0.073,0.265c-0.069,0.148-0.165,0.25-0.262,0.262l-0.065,0.006
		c-0.318,0-0.474-0.144-1.906-1.777c-1.171-1.34-3.562-2.642-4.845-2.642c-0.183,0-0.353,0.08-0.483,0.208
		c-0.08,0.086-0.132,0.182-0.132,0.252c0,0.202,0.173,0.463,0.463,0.733c0.407,0.375,0.731,0.817,0.731,1.008
		c0,0.13-0.172,0.246-0.37,0.246c-0.375,0-1.22-0.545-2.794-1.781c-2.454-1.925-3.547-3.746-3.547-5.852
		c0-2.544,1.813-4.537,4.139-4.537c1.362,0,3.17,0.655,4.405,1.582l3.222,2.428c1.473,1.122,3.281,1.714,5.173,1.714
		c0.412,0,0.799-0.092,1.138-0.266c0.287-0.144,0.463-0.316,0.463-0.441c0-0.078-0.246-0.194-0.595-0.284
		c-1.163-0.276-2.099-0.679-2.761-1.182l-3.286-2.494c-1.22-0.927-2.073-1.52-2.567-1.777c-1.732-0.911-2.071-1.126-2.071-1.326
		c0-0.102,0.165-0.188,0.377-0.188c0.176,0,0.374,0.044,0.577,0.132l1.712,0.727c0.549,0.228,1.471,0.779,2.761,1.642
		c3.519,2.351,5.308,3.105,7.374,3.105c1.965,0,3.415-1.394,3.415-3.289c0-0.372-0.095-0.785-0.274-1.136l-0.328-0.653
		c-0.115-0.234-0.328-0.411-0.393-0.33l-0.197,0.262l-0.196,1.384c-0.008,0.052-0.078,0.212-0.201,0.461
		c-0.124,0.258-0.279,0.483-0.456,0.655c-0.359,0.35-0.657,0.465-1.208,0.465c-1.016,0-2.158-0.545-5.235-2.505
		c-3.113-1.981-5.923-3.016-8.151-3.016c-4.731,0-8.546,3.81-8.546,8.528c0,6.581,4.015,9.556,16.627,12.306
		c4.799,1.043,6.906,2.449,6.906,4.583c0,1.949-1.572,3.175-4.072,3.175c-0.755,0-1.35-0.044-1.779-0.13
		c-0.425-0.088-2.682-0.701-6.774-1.847c-2.82-0.781-5.983-1.224-8.774-1.224c-4.948,0-8.281,1.47-10.55,4.647
		c-0.264,0.377-0.525,0.597-0.699,0.597c-0.134,0-0.331-0.092-0.551-0.266l-0.917-0.725c-0.649-0.507-1.674-0.899-2.36-0.899
		c-0.499,0-0.972,0.198-1.391,0.575c-0.326,0.296-0.569,0.455-0.669,0.455c-0.37,0-1.045-0.825-1.561-1.903
		c-0.738-1.54-1.122-3.072-1.122-4.474c0-0.657,0.207-1.114,0.497-1.114c0.227,0,0.401,0.174,0.494,0.523l0.525,1.907
		c0.294,1.068,0.889,1.907,1.342,1.907c0.201,0,0.556-0.289,0.956-0.787c0.245-0.3,0.421-0.613,0.53-0.923
		c0.412-1.204,0.512-1.378,0.835-1.378c0.385,0,0.582,0.236,0.84,1.44c0.052,0.222,0.124,0.555,0.43,1.128
		c0.266,0.497,0.532,0.899,0.788,1.182c0.196,0.214,0.445,0.337,0.68,0.337c0.577,0,1.109-0.965,1.109-2.029l-0.012-0.28l-0.08-1.22
		c0-0.473,0.074-0.615,0.339-0.615c0.155,0,0.273,0.082,0.46,0.32c0.282,0.363,0.662,0.677,1.12,0.919
		c0.401,0.218,0.721,0.33,0.935,0.33c0.191,0,0.419-0.122,0.639-0.33c0.178-0.166,0.276-0.353,0.276-0.515
		c0-0.194-0.235-0.493-0.933-1.192c-0.372-0.379-0.822-1.278-1.315-2.626c-0.184-0.517-0.433-0.867-0.619-0.867
		c-0.051,0-0.201,0.048-0.432,0.14l-0.853,0.324l-0.592,0.262l-0.224,0.048c-0.28,0-0.505-0.2-0.505-0.451
		c0-0.254,0.597-0.961,1.321-1.562c0.52-0.437,0.833-1.084,0.853-1.775c0.042-1.106,0.246-1.977,0.46-1.977l0.199-2.299
		c0.093-1.154,0.572-3.335,0.986-4.531c0.08-0.242,0.186-0.404,0.263-0.404c0.183,0,0.348,0.497,0.348,1.044l-0.02,0.34
		l-0.038,0.665c0,0.833,0.134,1.264,0.393,1.264c0.287,0,0.61-0.414,0.897-1.14l0.589-1.51c0.173-0.447,0.264-0.861,0.264-1.228
		c0-1.278-0.766-2.207-1.829-2.207l-0.476,0.082c-0.252,0.088-0.411,0.132-0.465,0.132c-0.346,0-0.637-0.381-0.637-0.827l0.05-0.947
		l-0.062-1.316l-0.264-1.378l-0.069-0.661l-0.59,0.327l-0.726,0.593l-1.047,0.851l-0.856,0.725c-0.151,0.13-0.322,0.202-0.488,0.202
		c-0.502,0-0.564-0.136-0.564-1.16v-0.256c0-0.829-0.36-1.476-1.706-3.056c-0.077-0.092-0.186-0.216-0.333-0.395l-0.258,0.463
		l-0.724,1.182l-0.723,1.839l-0.135,1.182c-0.033,0.339-0.165,0.603-0.296,0.603c-0.135,0-0.363-0.172-0.619-0.471
		c-1.004-1.15-1.323-1.358-2.828-1.903l-0.129,0.457c-0.24,0.779-0.372,1.24-0.395,1.386l-0.07,1.246v0.525l0.006,0.419
		c0,0.362-0.134,0.577-0.356,0.577l-0.042-0.01c-0.023-0.008-0.155-0.122-0.394-0.326c-0.151-0.138-0.432-0.204-0.796-0.204
		c-1.222,0-2.003,0.663-2.003,1.715c0,0.787,0.268,1.374,1.481,3.219C25.826,144.924,26.447,145.567,26.692,145.567z
		 M36.464,141.477c0.667-0.118,1.117-0.247,1.318-0.391c0.627-0.449,0.98-0.691,1.051-0.727l0.111-0.02
		c0.177,0,0.303,0.124,0.303,0.322l-0.021,0.09l-0.458,1.124l-1.445,1.566l-0.858,1.522c-0.207,0.232-0.317,0.354-0.328,0.36
		l-0.064,0.01c-0.349,0-0.701-0.799-0.727-1.626L35.22,142.4C35.322,141.859,35.642,141.619,36.464,141.477z M34.458,148.183
		c0.411,0,0.806-0.088,1.153-0.26l1.052-0.525c0.187-0.092,0.355-0.142,0.5-0.142c0.513,0,0.892,0.379,0.892,1.07
		c0,0.751-0.587,1.761-1.392,3.209c-0.868,1.572-1.522,2.638-2.194,2.638c-0.943,0-2.285-1.504-3.588-4.018
		c-0.307-0.587-0.502-1.294-0.502-1.829c0-0.829,0.364-1.266,1.062-1.266c0.288,0,0.554,0.068,0.753,0.204l0.591,0.397
		C33.303,147.998,33.886,148.183,34.458,148.183z M29.238,140.353c0.155,0,0.513,0.182,0.786,0.398
		c0.29,0.234,0.474,0.216,0.918,0.335c1.795,0.465,2.174,0.793,2.174,1.658l-0.07,1.096l-0.261,0.991
		c-0.111,0.425-0.222,0.569-0.418,0.569c-0.143,0-1.281-0.821-1.425-1.027l-0.652-0.923l-0.923-1.644l-0.328-0.981l-0.072-0.29
		C28.967,140.431,29.09,140.353,29.238,140.353z"/>
	<path class="st0" d="M33.835,152.92c0.123,0.174,0.314,0.278,0.504,0.278c0.427,0,0.726-0.809,0.944-2.123l0.195-0.983l0.018-0.188
		c0-0.407-0.121-0.545-0.452-0.545l-0.155,0.01l-0.788,0.128l-0.727-0.128l-0.108-0.008c-0.42,0-0.626,0.238-0.626,0.711
		C32.641,150.736,33.157,151.962,33.835,152.92z"/>
	<path class="st0" d="M167.883,169.762c-0.234,0-0.481,0.074-0.796,0.25c-0.24,0.128-0.419,0.194-0.501,0.194
		c-0.117,0-0.272-0.098-0.422-0.268l-0.461-0.521l-0.323-0.527c-0.131-0.206-0.338-0.331-0.551-0.331
		c-0.03,0-0.206,0.042-0.506,0.136l-0.593,0.06c-0.682,0.03-0.935,0.274-0.935,0.923l0.018,0.391l0.01,0.296
		c0,0.575-0.509,1.46-1.194,2.075l-1.247,1.118c-1.54,1.368-2.737,3.573-2.737,5.029c0,0.625,0.204,1.64,0.566,2.854
		c0.59,1.971,0.798,2.904,0.798,3.541c0,3.157-4.818,7.313-13.751,11.843c-4.529,2.297-5.663,3.661-5.663,6.79l0.077,1.166
		c0.799-0.741,0.933-0.797,3.16-1.254c1.797-0.362,2.64-1.182,3.019-2.95c0.284-1.31,0.463-1.554,1.643-2.235
		c0.38-0.226,0.668-0.445,0.853-0.661c0.148-0.166,0.266-0.258,0.326-0.258c0.131,0,0.235,0.128,0.235,0.29
		c0,0.222-0.15,0.599-0.424,1.091c-0.183,0.306-0.27,0.705-0.27,1.25c0,1.06,0.221,1.777,0.796,2.624
		c0.395-0.877,0.618-1.116,1.641-1.843c1.305-0.913,1.8-1.979,2.037-4.34c0.098-0.995,0.294-1.518,0.561-1.518
		c0.124,0,0.235,0.082,0.29,0.202l0.462,0.989c0.062,0.132,0.225,0.216,0.417,0.216c0.188,0,0.535-0.198,0.832-0.483l0.923-0.847
		c0.391-0.367,0.649-1.27,0.783-2.76c0.057-0.553,0.243-0.923,0.462-0.923c0.139,0,0.272,0.134,0.329,0.326l0.398,1.316
		c0.093,0.316,0.28,0.527,0.469,0.527c0.085,0,0.268-0.116,0.517-0.332c0.359-0.302,0.667-0.633,0.92-0.983
		c0.3-0.409,0.462-0.871,0.462-1.314v-1.118c0-0.248,0.088-0.503,0.259-0.721c0.126-0.164,0.237-0.272,0.288-0.272
		c0.145,0,0.294,0.134,0.371,0.338l0.262,0.717c0.115,0.321,0.361,0.533,0.619,0.533c0.346,0,0.696-0.298,1.22-1.054
		c0.15-0.218,0.284-0.391,0.398-0.529c0.298-0.359,0.461-0.653,0.461-0.829c0-0.09-0.096-0.258-0.265-0.485
		c-0.956-1.242-1.447-2.746-1.447-4.46c0-2.187,0.829-4.024,3.35-7.439c1.512-2.037,2.368-3.946,2.368-5.266
		C168.401,169.946,168.227,169.762,167.883,169.762z"/>
	<path class="st0" d="M134.942,149.893c1.172,1.06,1.283,1.194,1.283,1.574c0,0.298-0.204,0.531-0.453,0.531l-0.437-0.068
		l-0.258-0.026c-0.357,0-0.686,0.657-0.686,1.39c0,0.421,0.168,1.087,0.42,1.658c0.162,0.386,0.321,0.655,0.457,0.793l0.659,0.655
		c0.169,0.164,0.266,0.411,0.266,0.673c0,0.321-0.185,0.587-0.4,0.587c-0.133,0-0.335-0.078-0.591-0.212
		c-0.165-0.082-0.32-0.13-0.462-0.13c-0.292,0-0.435,0.18-0.435,0.541l0.106,0.977l0.398,1.703c0.087,0.385,0.331,0.811,0.72,1.256
		c0.337,0.381,0.676,0.645,0.987,0.787c0.829,0.359,1.271,0.561,1.318,0.593c0.124,0.092,0.194,0.286,0.194,0.525
		c0,0.246-0.194,0.459-0.438,0.459c-0.072,0-0.3-0.048-0.68-0.132l-0.667-0.064c-0.669,0-0.714,0.036-0.714,0.553
		c0,0.33,0.045,0.677,0.133,1.021l0.263,1.052c0.28,1.112,0.639,1.715,1.035,1.715c0.085,0,0.251-0.098,0.476-0.266
		c0.951-0.729,2.862-1.38,4.062-1.38c1.233,0,2.642,0.15,3.172,0.329c0.3,0.104,0.515,0.16,0.629,0.16
		c0.162,0,0.214-0.162,0.224-0.747l0.135-1.184l0.263-2.039l0.194-1.512v-0.857c-0.241,0.196-0.414,0.353-0.531,0.461
		c-1.117,1.049-1.821,1.378-2.976,1.378c-3.024,0-4.759-3.397-4.759-9.326c0-2.446,0.359-5.905,1.035-9.87
		c0.142-0.833,0.206-1.414,0.206-1.823c0-2.161-1.368-4.274-3.755-5.8v0.659l0.008,0.973c0,0.348-0.032,0.595-0.141,1.065
		c-0.211,0.913-0.262,1.228-0.262,1.486c0,1.258,0.175,1.879,0.917,3.175c0.412,0.719,0.678,1.584,0.678,2.209
		c0,0.264-0.107,0.421-0.288,0.421c-0.11,0-0.234-0.066-0.32-0.19l-0.525-0.727c-0.421-0.577-0.816-0.729-1.885-0.729l-1.14,0.072
		c0.456,1.122,0.603,1.548,0.788,2.299C133.698,148.685,133.773,148.842,134.942,149.893z"/>
	<path class="st0" d="M140.986,149.434c0.492-0.431,0.885-1.346,0.885-2.021c0-0.31-0.065-0.601-0.225-0.935
		c-0.228-0.493-0.668-0.933-0.933-0.933c-0.224,0-0.425,0.541-0.512,1.39l-0.134,0.987l-0.194,0.985l-0.068,0.986v0.657l0.591-0.587
		L140.986,149.434z"/>
	<path class="st0" d="M135.529,178.621c0.912,1.06,1.417,1.312,2.627,1.312c0.327,0,0.638-0.042,0.93-0.126l0.848-0.264l0.657-0.202
		c0.314-0.086,0.527-0.226,0.527-0.333c0-0.138-0.517-0.575-1.314-1.11c-0.527-0.359-1.055-0.667-1.576-0.921
		c-0.569-0.279-1.039-0.409-1.507-0.409c-0.925,0-1.817,0.287-2.702,0.871C134.693,177.688,134.834,177.8,135.529,178.621z"/>
	<path class="st0" d="M147.759,194.202c1.216-0.645,1.777-1.102,1.777-1.438c0-0.433-0.74-0.687-2.012-0.687
		c-2.544,0-4.631,1.742-4.631,3.863l0.065,0.759c1.161-0.511,1.57-0.715,2.893-1.444
		C147.009,194.608,147.64,194.262,147.759,194.202z"/>
	<path class="st0" d="M173.328,179.08c0.211-0.164,0.52-0.38,0.92-0.655c1.316-0.897,1.386-0.957,1.386-1.242
		c0-0.366-0.533-0.543-1.641-0.543c-2.071,0-3.333,0.971-4.343,3.357c0.933-0.19,1.246-0.433,1.708-0.451l1.184,0.06
		C172.687,179.556,172.952,179.372,173.328,179.08z"/>
	<path class="st0" d="M146.57,145.308c0.114,0,0.137-0.078,0.137-0.404l-0.002-0.136l-0.062-1.118l-0.134-0.859l-0.008-0.112
		c0-0.253,0.098-0.367,0.297-0.367c0.594,0,1.115,1.74,1.556,5.214c0.383,3.054,1.226,5.162,2.559,6.379
		c0.339,0.311,0.536,0.565,0.536,0.711c0,0.11-0.116,0.21-0.261,0.21c-0.193,0-0.492-0.118-0.863-0.33
		c-0.24-0.138-0.482-0.21-0.714-0.21c-0.657,0-1.391,0.767-1.522,1.592l-0.593,3.743l-0.46,5.264
		c-0.087,0.996,0.047,2.33,0.394,3.942c0.304,1.418,0.463,2.464,0.463,3.113c0,3.94-2.454,7.058-6.513,8.26l-4.206,1.244
		c-2.622,0.779-3.911,2.506-4.271,5.718c0.673-0.535,0.879-0.619,1.909-0.783l1.243-0.196c0.53-0.088,0.907-0.202,1.12-0.33
		c0.118-0.072,0.359-0.319,0.726-0.727l1.117-1.244c0.422-0.477,0.802-0.745,1.034-0.745c0.155,0,0.282,0.174,0.282,0.379
		c0,0.24-0.163,0.625-0.464,1.087c-0.309,0.485-0.481,1.072-0.481,1.692c0,0.837,0.222,1.37,1.073,2.58
		c0.108-0.398,0.195-0.661,0.265-0.791c0.109-0.208,0.438-0.669,0.985-1.378c0.91-1.178,1.564-2.407,1.574-2.962
		c0.018-1.017,0.108-1.348,0.367-1.348c0.22,0,0.259,0.05,0.36,0.627c0.024,0.142,0.094,0.28,0.197,0.399
		c0.152,0.166,0.3,0.262,0.401,0.262c0.083,0,0.264-0.092,0.523-0.262c0.452-0.305,0.803-0.615,1.047-0.919
		c0.274-0.34,0.491-0.739,0.656-1.184c0.22-0.577,0.337-0.998,0.337-1.244l-0.008-0.849c0-0.226,0.093-0.409,0.217-0.409
		c0.155,0,0.492,0.345,0.706,0.727c0.145,0.255,0.235,0.331,0.422,0.331h0.038c0.238-0.026,0.443-0.122,0.59-0.266
		c0.801-0.783,1.321-1.747,1.321-2.466l-0.069-1.212l-0.262-0.994l-0.012-0.084c0-0.206,0.149-0.379,0.319-0.379
		c0.296,0,0.623,0.423,1.073,1.386c0.209,0.457,0.403,0.665,0.599,0.665c0.313,0,0.559-0.234,1.177-1.128l0.592-0.851
		c0.129-0.188,0.197-0.413,0.197-0.663c0-0.229-0.068-0.457-0.197-0.649l-0.53-0.791c-0.085-0.136-0.131-0.362-0.131-0.659
		c0-0.893,0.324-1.905,0.989-3.086c0.484-0.863,0.771-1.412,0.853-1.646c0.103-0.272,0.217-0.398,0.365-0.398
		c0.114,0,0.224,0.158,0.224,0.33l-0.061,0.727v0.527v0.521c0.087,0.242,0.248,0.337,0.566,0.337c0.201,0,0.43-0.05,0.683-0.134
		l1.641-0.593c0.393-0.14,0.897-0.388,1.512-0.727c2.576-1.426,3.371-1.722,4.641-1.722c0.757,0,1.732,0.294,3.118,0.933
		c0.284,0.132,0.515,0.204,0.677,0.204c0.192,0,0.399-0.122,0.574-0.331c0.13-0.152,0.194-0.338,0.194-0.501
		c0-0.24-0.09-0.523-0.263-0.815c-0.209-0.362-0.402-0.821-0.402-0.981c0-0.178,0.114-0.288,0.302-0.288
		c0.15,0,0.376,0.158,0.495,0.348c0.196,0.314,0.7,1.188,1.51,2.626c1.224,2.179,2.82,3.697,4.21,4.012l2.89,0.661
		c0.896,0.202,1.123,0.549,1.123,1.664c0,2.041-0.967,3.838-2.632,4.905l-2.368,1.518c-0.86,0.545-1.579,2.059-1.579,3.315
		c0,0.813,0.197,2.247,0.46,3.385l0.461-0.457l1.12-0.659l0.988-0.987l0.525-1.448l0.523-1.316c0.258-0.635,0.561-1.052,0.765-1.052
		c0.229,0,0.359,0.359,0.359,1.006l-0.008,0.18l-0.002,0.247c0,0.945,0.127,1.36,0.858,2.778l0.264-0.723l0.266-0.925
		c0.05-0.166,0.296-0.541,0.721-1.11c0.668-0.879,1.006-1.981,1.006-3.269c0-0.407-0.103-0.783-0.349-1.272
		c-0.129-0.258-0.2-0.465-0.2-0.609c0-0.09,0.049-0.194,0.137-0.306c0.081-0.116,0.176-0.184,0.264-0.196l0.041-0.008
		c0.168,0,0.453,0.194,0.677,0.462c0.28,0.339,0.525,0.529,0.67,0.529c0.297,0,0.608-0.501,0.778-1.248
		c0.09-0.401,0.132-0.615,0.132-0.659c0-0.319-0.266-1.144-0.592-1.841c-0.127-0.264-0.189-0.489-0.189-0.667
		c0-0.234,0.155-0.425,0.362-0.425c0.191,0,0.504,0.204,0.873,0.561c0.181,0.174,0.36,0.266,0.5,0.266
		c0.411,0,0.708-0.421,1.018-1.448c0.191-0.637,0.263-0.922,0.263-1.028c0-0.192-0.083-0.305-0.233-0.305l-0.229,0.018l-0.779,0.082
		c-1.2,0-2.895-0.827-3.691-1.787l-1.841-2.235c-0.709-0.863-1.701-2.173-1.641-2.173l-1.515-0.986
		c-0.245-0.162-0.393-0.361-0.393-0.535c0-0.248,0.248-0.412,0.626-0.412c0.348,0,1.424,0.383,3.386,1.212
		c1.893,0.801,4.874,1.456,6.663,1.456c3.144,0,5.733-2.544,5.733-5.628c0-1.688-0.754-3.247-2.603-5.424
		c-0.346-0.409-0.94-0.807-1.215-0.807c-0.215,0-0.364,0.16-0.364,0.389c0,0.18,0.07,0.435,0.201,0.741
		c0.083,0.206,0.127,0.415,0.127,0.603c0,0.3-0.111,0.475-0.314,0.475c-0.413,0-0.845-0.677-1.197-1.861
		c-0.435-1.468-1.293-2.34-3.292-3.353c-0.76-0.393-1.758-0.741-2.078-0.741c-0.129,0-0.216,0.114-0.216,0.288
		c0,0.248,0.092,0.515,0.26,0.779c0.289,0.443,0.474,0.871,0.53,1.254l0.002,0.06c0,0.256-0.131,0.398-0.367,0.398
		c-0.424,0-0.517-0.11-1.478-1.58c-0.495-0.755-1.818-1.754-2.96-2.235c-0.359-0.154-0.74-0.244-1.118-0.266l-0.038-0.002
		c-0.238,0-0.422,0.114-0.422,0.258c0,0.052,0.103,0.264,0.294,0.603l0.099,0.37c0,0.202-0.135,0.357-0.31,0.357
		c-0.394,0-1.616-1.001-2.58-2.107c-1.044-1.206-1.711-2.734-1.711-3.936c0-2.514,2.401-4.749,5.089-4.749
		c0.678,0,1.252,0.12,1.683,0.337l2.298,1.182l2.699,1.78c1.551,1.015,3.676,1.779,4.961,1.779c0.481,0,0.84-0.066,2.071-0.409
		c0.646-0.174,1.045-0.431,1.045-0.665l-0.026-0.054l-0.228-0.132l-1.447-0.124c-0.804-0.082-2.629-0.903-4.074-1.851l-3.025-1.967
		l-2.694-1.122c-0.204-0.08-0.336-0.214-0.336-0.345c0-0.136,0.14-0.25,0.308-0.25c0.002,0,0.255,0.052,0.747,0.134l2.498,0.727
		c0.631,0.178,1.639,0.641,3.026,1.378c2.741,1.458,4.528,2.103,5.84,2.103c1.52,0,2.637-1.044,2.637-2.46
		c0-0.475-0.106-1.252-0.258-1.879c-0.08-0.306-0.214-0.597-0.398-0.855c-0.115-0.166-0.237-0.258-0.323-0.258
		c-0.189,0-0.297,0.198-0.297,0.535l0.031,0.451l0.026,0.383c0,1.214-0.474,1.641-1.813,1.641c-1.094,0-2.559-0.439-5.905-1.765
		c-3.132-1.232-5.091-1.706-7.037-1.706c-4.951,0-9.286,4.038-9.286,8.642c0,3.976,2.643,7.02,8.041,9.24l5.584,2.299
		c4.623,1.899,6.321,3.263,6.321,5.059c0,1.498-1.396,2.462-3.568,2.462c-0.938,0-2.107-0.258-4.262-0.947
		c-5.231-1.666-8.631-2.357-11.624-2.357c-4.878,0-8.35,1.334-11.121,4.264c-0.367,0.387-0.583,0.505-0.906,0.505
		c-0.222,0-0.448-0.088-0.938-0.375c-0.497-0.29-1.049-0.473-1.443-0.473c-0.481,0-1.228,0.413-1.579,0.869l-0.657,0.853
		c-0.191,0.25-0.406,0.401-0.581,0.401c-0.476,0-1.319-0.811-1.85-1.78c-0.324-0.591-0.545-1.168-0.656-1.711
		c-0.085-0.415-0.136-1.088-0.136-1.803l0.066-1.222l0.199-1.31c0.095-0.631,0.166-1.01,0.199-1.12
		c0.049-0.158,0.176-0.26,0.315-0.26c0.341,0,0.491,0.31,0.491,1.029l-0.018,0.415l-0.013,0.296c0,1.871,0.742,3.585,1.557,3.585
		c0.641,0,1.207-1.15,1.677-3.425c0.095-0.457,0.279-0.721,0.502-0.721c0.263,0,0.421,0.336,0.618,1.316
		c0.121,0.637,0.538,1.52,0.984,2.103c0.255,0.33,0.528,0.529,0.75,0.529c0.538,0,0.884-0.807,1.153-2.698
		c0.109-0.735,0.326-1.192,0.579-1.192c0.107,0,0.207,0.054,0.276,0.142c0.047,0.052,0.199,0.294,0.464,0.723
		c0.159,0.27,0.411,0.491,0.721,0.655c0.327,0.17,0.592,0.264,0.763,0.264c0.208,0,0.429-0.098,0.615-0.264
		c0.294-0.262,0.46-0.461,0.46-0.539c0-0.096-0.134-0.302-0.393-0.579c-0.432-0.463-0.765-1.084-1.182-2.173
		c-0.276-0.721-0.471-1.218-0.589-1.508c-0.103-0.24-0.217-0.398-0.331-0.459l-0.209-0.054l-0.386,0.054
		c-0.074,0.018-0.535,0.15-1.377,0.389l-0.43,0.068c-0.186,0-0.307-0.122-0.307-0.313c0-0.176,0.235-0.495,0.54-0.735
		c1.663-1.324,2.653-3.543,3.023-6.772c0.224-1.963,0.479-2.708,1.313-3.88c0.176-0.245,0.329-0.393,0.412-0.393
		c0.256,0,0.396,0.198,0.396,0.579c0,0.254-0.073,0.571-0.214,0.933c-0.093,0.252-0.143,0.523-0.143,0.797l0.011,0.25l0.132,0.398
		l0.724-0.266l0.785-0.915c0.471-0.545,0.864-1.783,0.864-2.694c0-0.629-0.153-1.07-0.528-1.514c-0.416-0.493-0.704-0.691-1-0.691
		l-0.45,0.032l-0.466,0.034c-0.424,0-0.636-0.128-0.636-0.388l0.113-0.501l0.07-0.723l-0.393-1.64l-0.329-0.793l-0.201-0.657
		l-0.461,0.328l-0.986,0.589c-0.255,0.154-0.522,0.401-0.791,0.725c-0.933,1.134-0.992,1.188-1.367,1.188
		c-0.238,0-0.375-0.086-0.375-0.25l0.036-0.279c0.134-0.603,0.196-1.057,0.196-1.364c0-1.146-0.832-2.874-1.838-3.828
		c-1.373,1.312-2.11,2.758-2.11,4.144v0.789c0,0.3-0.098,0.457-0.299,0.457h-0.023c-0.163-0.024-0.326-0.15-0.464-0.33l-0.786-1.049
		c-0.059-0.08-0.411-0.365-1.056-0.857c-0.121-0.096-0.3-0.248-0.523-0.455l-0.266,0.521c-0.649,1.304-0.876,2.085-0.917,3.157
		c-0.031,0.877-0.103,1.132-0.308,1.132c-0.1,0-0.242-0.048-0.416-0.148c-0.997-0.557-1.088-0.595-1.52-0.595
		c-1.182,0-1.991,0.847-1.991,2.091c0,0.485,0.274,1.222,0.817,2.187C145.27,144.327,146.177,145.308,146.57,145.308z
		 M155.12,142.462c0-0.433,0.237-0.657,0.581-0.729l1.397-0.387l1.44-0.727c0.42-0.204,0.55-0.26,0.623-0.26
		c0.167,0,0.309,0.174,0.309,0.381c0,0.094-0.051,0.236-0.142,0.413l-0.659,1.108l-1.51,1.52c-0.535,0.711-0.535,1.326-0.656,1.446
		c-0.101,0.092-0.258,0.166-0.464,0.196l-0.097,0.008c-0.383,0-0.67-0.276-0.691-0.663l-0.061-1.118l-0.07-1.121V142.462z
		 M155.449,147.263l0.857-0.391c0.197-0.09,0.371-0.14,0.51-0.14c0.528,0,0.941,0.555,0.941,1.254c0,0.971-0.701,1.967-1.718,3.415
		l-0.718,1.518c-0.575,0.821-0.954,1.118-1.424,1.118c-0.781,0-1.159-0.445-2.327-2.768c-0.842-1.66-1.184-2.678-1.184-3.485
		c0-0.695,0.361-1.178,0.881-1.178c0.214,0,0.476-0.052,0.763,0.126l0.984,0.729c0.245,0.144,0.551,0.222,0.882,0.222
		C154.297,147.684,154.892,147.526,155.449,147.263z M149.647,139.921l0.147,0.048l0.923,0.593c0.524,0.335,0.963,0.577,1.313,0.719
		c1.015,0.419,1.383,0.567,1.383,0.957c0,0.144-0.042,0.491-0.132,0.749c-0.101,0.296-0.165,0.605-0.196,0.923
		c-0.093,0.893-0.636,1.12-0.992,1.12c-0.443,0-0.907-0.687-1.639-1.973c-0.327-0.585-0.796-1.755-1.049-2.626l-0.039-0.256
		C149.365,140.015,149.463,139.921,149.647,139.921z"/>
	<path class="st0" d="M152.889,150.356l0.065,1.252c0.028,0.565,0.501,1.126,0.955,1.126c0.606,0,1.038-0.917,1.275-2.307
		c0.111-0.637,0.15-0.739,0.15-0.913c0-0.483-0.162-0.615-0.783-0.615l-0.346,0.012h-0.463l-0.294-0.012
		c-0.411,0-0.57,0.322-0.57,1.158L152.889,150.356z"/>
	<rect x="113.347" y="129.88" class="st0" width="3.912" height="1.59"/>
	<path class="st0" d="M0,0v124.194c0,61.064,32.067,78.492,47.477,86.869c2.83,1.537,50.387,25.177,53.434,26.689l2.049,1.095
		l2.047-1.094c2.752-1.368,50.598-25.148,53.434-26.69c15.411-8.377,47.479-25.805,47.479-86.869V0H0z M114.316,16.27l-1.602-1.905
		l2.023-2.403l2.025,2.403l-1.604,1.905c-0.022,0.958-0.082,9.352,4.865,12.353c0,0-1.648,0.316-3.862-0.111
		c0,0-0.385,2.187-1.424,4.685c-1.037-2.498-1.42-4.685-1.42-4.685c-2.215,0.428-3.866,0.111-3.866,0.111
		C114.402,25.621,114.34,17.228,114.316,16.27z M114.316,59.156l-1.602-1.904l2.023-2.403l2.025,2.403l-1.604,1.904
		c-0.022,0.959-0.082,9.352,4.865,12.353c0,0-1.648,0.315-3.862-0.11c0,0-0.385,2.188-1.424,4.684
		c-1.037-2.496-1.42-4.684-1.42-4.684c-2.215,0.426-3.866,0.11-3.866,0.11C114.402,68.508,114.34,60.116,114.316,59.156z
		 M102.54,37.714l-1.604-1.905l2.023-2.403l2.023,2.403l-1.6,1.905c-0.026,0.958-0.086,9.352,4.865,12.353
		c0,0-1.65,0.315-3.866-0.11c0,0-0.385,2.187-1.422,4.684c-1.038-2.497-1.422-4.684-1.422-4.684c-2.213,0.426-3.864,0.11-3.864,0.11
		C102.622,47.065,102.562,38.672,102.54,37.714z M90.761,16.27l-1.602-1.905l2.023-2.403l2.025,2.403l-1.604,1.905
		c-0.022,0.958-0.082,9.352,4.865,12.353c0,0-1.648,0.316-3.864-0.111c0,0-0.383,2.187-1.422,4.685
		c-1.038-2.498-1.422-4.685-1.422-4.685c-2.213,0.428-3.864,0.111-3.864,0.111C90.848,25.621,90.785,17.228,90.761,16.27z
		 M90.761,59.156l-1.602-1.904l2.023-2.403l2.025,2.403l-1.604,1.904c-0.022,0.959-0.082,9.352,4.865,12.353
		c0,0-1.648,0.315-3.864-0.11c0,0-0.383,2.188-1.422,4.684c-1.038-2.496-1.422-4.684-1.422-4.684
		c-2.213,0.426-3.864,0.11-3.864,0.11C90.848,68.508,90.785,60.116,90.761,59.156z M4.451,4.45H82.01v79.148H4.451V4.45z
		 M66.764,91.108l-1.602-1.903l2.023-2.403l2.023,2.403l-1.602,1.903c-0.022,0.96-0.084,9.353,4.865,12.352
		c0,0-1.65,0.318-3.864-0.108c0,0-0.385,2.186-1.422,4.684c-1.038-2.498-1.424-4.684-1.424-4.684
		c-2.213,0.426-3.862,0.108-3.862,0.108C66.848,100.461,66.786,92.069,66.764,91.108z M54.133,105.365l-1.604-1.905l2.025-2.401
		l2.021,2.401l-1.6,1.905c-0.022,0.959-0.086,9.353,4.865,12.353c0,0-1.65,0.316-3.864-0.111c0,0-0.385,2.188-1.422,4.685
		c-1.04-2.496-1.424-4.685-1.424-4.685c-2.213,0.428-3.862,0.111-3.862,0.111C54.215,114.718,54.155,106.325,54.133,105.365z
		 M41.503,91.108L39.9,89.206l2.021-2.403l2.023,2.403l-1.6,1.903c-0.024,0.96-0.084,9.353,4.865,12.352c0,0-1.65,0.318-3.864-0.108
		c0,0-0.385,2.186-1.424,4.684c-1.038-2.498-1.42-4.684-1.42-4.684c-2.215,0.426-3.866,0.108-3.866,0.108
		C41.587,100.461,41.527,92.069,41.503,91.108z M28.87,105.365l-1.602-1.905l2.023-2.401l2.023,2.401l-1.6,1.905
		c-0.024,0.959-0.084,9.353,4.865,12.353c0,0-1.65,0.316-3.864-0.111c0,0-0.386,2.188-1.424,4.685
		c-1.038-2.496-1.422-4.685-1.422-4.685c-2.213,0.428-3.864,0.111-3.864,0.111C28.954,114.718,28.894,106.325,28.87,105.365z
		 M16.24,91.108l-1.602-1.903l2.023-2.403l2.025,2.403l-1.604,1.903c-0.022,0.96-0.082,9.353,4.865,12.352
		c0,0-1.648,0.318-3.863-0.108c0,0-0.383,2.186-1.422,4.684c-1.038-2.498-1.422-4.684-1.422-4.684
		c-2.215,0.426-3.864,0.108-3.864,0.108C16.324,100.461,16.264,92.069,16.24,91.108z M82.01,223.377
		c-14.257-7.099-30.825-15.365-32.405-16.226c-15.607-8.482-44.701-24.918-45.144-81.655H82.01V223.377z M78.867,120.596V86.653
		h7.249c0.574-1.402,1.949-2.391,3.558-2.391s2.984,0.989,3.558,2.391h5.611c0.574-1.402,1.949-2.391,3.558-2.391
		c1.609,0,2.984,0.989,3.558,2.391h5.611c0.574-1.402,1.949-2.391,3.558-2.391c1.609,0,2.984,0.989,3.558,2.391h7.249v34.076H119.5
		v13.061h-7.555v-13.061H92.856v13.061h-7.562v-13.193H78.867z M92.604,213.877c0,0-0.383,2.187-1.422,4.686
		c-1.038-2.498-1.422-4.686-1.422-4.686c-2.213,0.428-3.864,0.111-3.864,0.111c4.951-3,4.889-11.393,4.865-12.354l-1.602-1.903
		l2.023-2.403l2.025,2.403l-1.604,1.903c-0.022,0.961-0.082,9.354,4.865,12.354C96.468,213.988,94.819,214.305,92.604,213.877z
		 M92.604,170.992c0,0-0.383,2.187-1.422,4.686c-1.038-2.499-1.422-4.686-1.422-4.686c-2.213,0.428-3.864,0.111-3.864,0.111
		c4.951-3,4.889-11.394,4.865-12.354l-1.602-1.903l2.023-2.403l2.025,2.403l-1.604,1.903c-0.022,0.961-0.082,9.354,4.865,12.354
		C96.468,171.103,94.819,171.419,92.604,170.992z M104.38,192.436c0,0-0.385,2.187-1.422,4.685
		c-1.038-2.497-1.422-4.685-1.422-4.685c-2.213,0.428-3.864,0.111-3.864,0.111c4.949-3,4.889-11.395,4.867-12.353l-1.604-1.905
		l2.023-2.403l2.023,2.403l-1.6,1.905c-0.026,0.958-0.086,9.353,4.865,12.353C108.246,192.547,106.595,192.863,104.38,192.436z
		 M104.38,149.549c0,0-0.385,2.187-1.422,4.686c-1.038-2.499-1.422-4.686-1.422-4.686c-2.213,0.428-3.864,0.109-3.864,0.109
		c4.949-3,4.889-11.392,4.867-12.352l-1.604-1.903l2.023-2.403l2.023,2.403l-1.6,1.903c-0.026,0.96-0.086,9.352,4.865,12.352
		C108.246,149.658,106.595,149.976,104.38,149.549z M116.16,213.877c0,0-0.385,2.187-1.424,4.686
		c-1.037-2.498-1.42-4.686-1.42-4.686c-2.215,0.428-3.866,0.111-3.866,0.111c4.951-3,4.889-11.393,4.865-12.354l-1.602-1.903
		l2.023-2.403l2.025,2.403l-1.604,1.903c-0.022,0.961-0.082,9.354,4.865,12.354C120.022,213.988,118.374,214.305,116.16,213.877z
		 M116.16,170.992c0,0-0.385,2.187-1.424,4.686c-1.037-2.499-1.42-4.686-1.42-4.686c-2.215,0.428-3.866,0.111-3.866,0.111
		c4.951-3,4.889-11.394,4.865-12.354l-1.602-1.903l2.023-2.403l2.025,2.403l-1.604,1.903c-0.022,0.961-0.082,9.354,4.865,12.354
		C120.022,171.103,118.374,171.419,116.16,170.992z M156.316,207.152c-1.582,0.86-18.149,9.126-32.407,16.228v-97.883h77.549
		C201.017,182.233,171.921,198.669,156.316,207.152z M138.298,91.108l-1.602-1.903l2.023-2.403l2.025,2.403l-1.602,1.903
		c-0.024,0.96-0.084,9.353,4.865,12.352c0,0-1.65,0.318-3.864-0.108c0,0-0.385,2.186-1.424,4.684
		c-1.039-2.498-1.422-4.684-1.422-4.684c-2.213,0.426-3.864,0.108-3.864,0.108C138.382,100.461,138.322,92.069,138.298,91.108z
		 M150.93,105.365l-1.604-1.905l2.025-2.401l2.023,2.401l-1.602,1.905c-0.024,0.959-0.084,9.353,4.865,12.353
		c0,0-1.648,0.316-3.864-0.111c0,0-0.385,2.188-1.422,4.685c-1.04-2.496-1.422-4.685-1.422-4.685
		c-2.215,0.428-3.864,0.111-3.864,0.111C151.012,114.718,150.952,106.325,150.93,105.365z M163.561,91.108l-1.604-1.903l2.025-2.403
		l2.023,2.403l-1.602,1.903c-0.022,0.96-0.084,9.353,4.865,12.352c0,0-1.648,0.318-3.864-0.108c0,0-0.385,2.186-1.422,4.684
		c-1.04-2.498-1.422-4.684-1.422-4.684c-2.215,0.426-3.864,0.108-3.864,0.108C163.645,100.461,163.585,92.069,163.561,91.108z
		 M176.191,105.365l-1.602-1.905l2.023-2.401l2.023,2.401l-1.6,1.905c-0.026,0.959-0.086,9.353,4.863,12.353
		c0,0-1.648,0.316-3.864-0.111c0,0-0.385,2.188-1.422,4.685c-1.04-2.496-1.422-4.685-1.422-4.685
		c-2.213,0.428-3.864,0.111-3.864,0.111C176.275,114.718,176.215,106.325,176.191,105.365z M188.822,91.108l-1.602-1.903
		l2.023-2.403l2.023,2.403l-1.6,1.903c-0.024,0.96-0.084,9.353,4.863,12.352c0,0-1.648,0.318-3.862-0.108
		c0,0-0.385,2.186-1.424,4.684c-1.04-2.498-1.424-4.684-1.424-4.684c-2.211,0.426-3.862,0.108-3.862,0.108
		C188.906,100.461,188.846,92.069,188.822,91.108z M201.468,83.598h-77.559V4.45h77.559V83.598z"/>
	<rect x="86.695" y="129.88" class="st0" width="3.912" height="1.59"/>
	<path class="st0" d="M89.674,94.873c0.99,0,1.792-0.802,1.792-1.792v-4.709c0-0.99-0.802-1.792-1.792-1.792
		s-1.792,0.802-1.792,1.792v4.709C87.882,94.071,88.684,94.873,89.674,94.873z"/>
	<path class="st0" d="M102.171,103.756c-1.655,0-3.211,0.38-4.599,1.132c1.662,1.038,2.978,1.454,4.53,1.454
		c1.821,0,3.345-0.457,4.818-1.454C105.366,104.142,103.753,103.756,102.171,103.756z"/>
	<path class="st0" d="M102.499,110.59c3.892,0,6.572-1.394,9.72-5.041c-3.143-3.225-6.067-4.575-9.913-4.575
		c-4.041,0-7.686,1.652-10.106,4.575C94.896,108.921,98.296,110.59,102.499,110.59z M102.21,102.496
		c2.923,0,5.106,0.855,7.958,3.117c-2.482,2.462-4.662,3.385-8.005,3.385c-2.97,0-5.674-1.174-7.976-3.449
		C96.964,103.391,99.311,102.496,102.21,102.496z"/>
	<path class="st0" d="M87.714,113.572c0-0.948-0.773-1.72-1.723-1.72c-0.948,0-1.719,0.771-1.719,1.72
		c0,0.946,0.803,1.715,1.791,1.715C86.973,115.288,87.714,114.519,87.714,113.572z"/>
	<rect x="113.347" y="123.711" class="st0" width="3.912" height="5.033"/>
	<path class="st0" d="M85.991,99.711c0.95,0,1.723-0.773,1.723-1.723c0-0.947-0.773-1.716-1.723-1.716
		c-0.948,0-1.719,0.769-1.719,1.716C84.272,98.938,85.043,99.711,85.991,99.711z"/>
	<path class="st0" d="M118.808,115.288c0.949,0,1.721-0.769,1.721-1.715c0-0.948-0.772-1.72-1.721-1.72
		c-0.949,0-1.722,0.771-1.722,1.72C117.086,114.519,117.858,115.288,118.808,115.288z"/>
	<path class="st0" d="M118.808,99.711c0.949,0,1.721-0.773,1.721-1.723c0-0.947-0.772-1.716-1.721-1.716
		c-0.949,0-1.722,0.769-1.722,1.716C117.086,98.938,117.858,99.711,118.808,99.711z"/>
	<path class="st0" d="M115.128,94.873c0.989,0,1.792-0.802,1.792-1.792v-4.709c0-0.99-0.802-1.792-1.792-1.792
		c-0.99,0-1.792,0.802-1.792,1.792v4.709C113.336,94.071,114.139,94.873,115.128,94.873z"/>
	<path class="st0" d="M102.401,94.873c0.99,0,1.792-0.802,1.792-1.792v-4.709c0-0.99-0.802-1.792-1.792-1.792
		s-1.792,0.802-1.792,1.792v4.709C100.609,94.071,101.411,94.873,102.401,94.873z"/>
	<rect x="86.695" y="123.711" class="st0" width="3.912" height="5.033"/>
</g>
</svg>
